M48
; DRILL file {KiCad (5.99.0-11661-g1332208ab1)} date Mon Aug 23 15:05:51 2021
; FORMAT={-:-/ absolute / inch / decimal}
; #@! TF.CreationDate,2021-08-23T15:05:51-04:00
; #@! TF.GenerationSoftware,Kicad,Pcbnew,(5.99.0-11661-g1332208ab1)
; #@! TF.FileFunction,NonPlated,1,2,NPTH
FMAT,2
INCH
; #@! TA.AperFunction,NonPlated,NPTH,ComponentDrill
T1C0.0591
; #@! TA.AperFunction,NonPlated,NPTH,ComponentDrill
T2C0.0661
; #@! TA.AperFunction,NonPlated,NPTH,ComponentDrill
T3C0.0906
; #@! TA.AperFunction,NonPlated,NPTH,ComponentDrill
T4C0.1567
%
G90
G05
T1
X8.6298Y-2.1487
X8.6298Y-2.4243
X8.6987Y-2.1487
X8.6987Y-2.4243
T2
X4.3582Y-3.1379
X4.4999Y-3.7517
X4.6416Y-4.3655
X4.7479Y-3.0479
X4.8896Y-3.6617
X5.0101Y-2.6502
X5.0313Y-4.2755
X5.1087Y-3.2724
X5.2072Y-3.8945
X5.4052Y-2.5876
X5.5038Y-3.2098
X5.6023Y-3.832
X5.7168Y-2.4624
X5.7827Y-3.0888
X5.8485Y-3.7153
X6.1146Y-2.4205
X6.1805Y-3.047
X6.2463Y-3.6735
X6.5265Y-3.0748
X6.5265Y-3.7047
X6.5265Y-2.4449
X6.8381Y-4.3814
X6.9265Y-3.0748
X6.9265Y-3.7047
X6.9265Y-2.4449
X7.1564Y-3.1141
X7.1564Y-3.7441
X7.1564Y-2.4842
X7.2381Y-4.3814
X7.5204Y-4.4055
X7.5564Y-3.1141
X7.5564Y-3.7441
X7.5564Y-2.4842
X7.9155Y-4.4681
X8.1967Y-4.5394
X8.5749Y-4.6696
T3
X4.3858Y-2.6693
X4.4213Y-4.3622
X7.7559Y-4.8937
T4
X4.5531Y-3.0929
X4.6948Y-3.7067
X4.8365Y-4.3205
X5.2077Y-2.6189
X5.3062Y-3.2411
X5.4048Y-3.8633
X5.9157Y-2.4414
X5.9816Y-3.0679
X6.0474Y-3.6944
X6.7265Y-3.0748
X6.7265Y-3.7047
X6.7265Y-2.4449
X7.0381Y-4.3814
X7.3564Y-3.1141
X7.3564Y-3.7441
X7.3564Y-2.4842
X7.7179Y-4.4368
X8.3858Y-4.6045
T0
M30
