%TF.GenerationSoftware,KiCad,Pcbnew,(5.99.0-11661-g1332208ab1)*%
%TF.CreationDate,2021-08-23T15:05:43-04:00*%
%TF.ProjectId,tapir36,74617069-7233-4362-9e6b-696361645f70,rev?*%
%TF.SameCoordinates,Original*%
%TF.FileFunction,Soldermask,Top*%
%TF.FilePolarity,Negative*%
%FSLAX46Y46*%
G04 Gerber Fmt 4.6, Leading zero omitted, Abs format (unit mm)*
G04 Created by KiCad (PCBNEW (5.99.0-11661-g1332208ab1)) date 2021-08-23 15:05:43*
%MOMM*%
%LPD*%
G01*
G04 APERTURE LIST*
G04 Aperture macros list*
%AMHorizOval*
0 Thick line with rounded ends*
0 $1 width*
0 $2 $3 position (X,Y) of the first rounded end (center of the circle)*
0 $4 $5 position (X,Y) of the second rounded end (center of the circle)*
0 Add line between two ends*
20,1,$1,$2,$3,$4,$5,0*
0 Add two circle primitives to create the rounded ends*
1,1,$1,$2,$3*
1,1,$1,$4,$5*%
%AMRotRect*
0 Rectangle, with rotation*
0 The origin of the aperture is its center*
0 $1 length*
0 $2 width*
0 $3 Rotation angle, in degrees counterclockwise*
0 Add horizontal line*
21,1,$1,$2,0,0,$3*%
G04 Aperture macros list end*
%ADD10C,0.150000*%
%ADD11C,1.680000*%
%ADD12C,3.980000*%
%ADD13HorizOval,1.200000X-0.389748X-0.089980X0.389748X0.089980X0*%
%ADD14HorizOval,1.200000X-0.395075X-0.062574X0.395075X0.062574X0*%
%ADD15HorizOval,1.200000X-0.397809X-0.041811X0.397809X0.041811X0*%
%ADD16O,2.000000X1.200000*%
%ADD17C,1.500000*%
%ADD18O,1.600000X2.200000*%
%ADD19C,1.524000*%
%ADD20HorizOval,1.200000X-0.395075X0.062574X0.395075X-0.062574X0*%
%ADD21HorizOval,1.200000X-0.378207X0.130227X0.378207X-0.130227X0*%
%ADD22C,2.300000*%
%ADD23C,2.000000*%
%ADD24R,1.500000X1.000000*%
%ADD25RotRect,1.300000X1.700000X13.000000*%
%ADD26RotRect,1.300000X1.700000X9.000000*%
%ADD27RotRect,1.300000X1.700000X6.000000*%
%ADD28R,1.300000X1.700000*%
%ADD29RotRect,1.300000X1.700000X341.000000*%
%ADD30RotRect,1.300000X1.700000X351.000000*%
G04 APERTURE END LIST*
D10*
X129240357Y-118263571D02*
X129811785Y-118263571D01*
X129454642Y-117763571D02*
X129454642Y-119049285D01*
X129526071Y-119192142D01*
X129668928Y-119263571D01*
X129811785Y-119263571D01*
X130954642Y-119263571D02*
X130954642Y-118477857D01*
X130883214Y-118335000D01*
X130740357Y-118263571D01*
X130454642Y-118263571D01*
X130311785Y-118335000D01*
X130954642Y-119192142D02*
X130811785Y-119263571D01*
X130454642Y-119263571D01*
X130311785Y-119192142D01*
X130240357Y-119049285D01*
X130240357Y-118906428D01*
X130311785Y-118763571D01*
X130454642Y-118692142D01*
X130811785Y-118692142D01*
X130954642Y-118620714D01*
X131668928Y-118263571D02*
X131668928Y-119763571D01*
X131668928Y-118335000D02*
X131811785Y-118263571D01*
X132097500Y-118263571D01*
X132240357Y-118335000D01*
X132311785Y-118406428D01*
X132383214Y-118549285D01*
X132383214Y-118977857D01*
X132311785Y-119120714D01*
X132240357Y-119192142D01*
X132097500Y-119263571D01*
X131811785Y-119263571D01*
X131668928Y-119192142D01*
X133026071Y-119263571D02*
X133026071Y-118263571D01*
X133026071Y-117763571D02*
X132954642Y-117835000D01*
X133026071Y-117906428D01*
X133097500Y-117835000D01*
X133026071Y-117763571D01*
X133026071Y-117906428D01*
X133740357Y-119263571D02*
X133740357Y-118263571D01*
X133740357Y-118549285D02*
X133811785Y-118406428D01*
X133883214Y-118335000D01*
X134026071Y-118263571D01*
X134168928Y-118263571D01*
X134526071Y-117763571D02*
X135454642Y-117763571D01*
X134954642Y-118335000D01*
X135168928Y-118335000D01*
X135311785Y-118406428D01*
X135383214Y-118477857D01*
X135454642Y-118620714D01*
X135454642Y-118977857D01*
X135383214Y-119120714D01*
X135311785Y-119192142D01*
X135168928Y-119263571D01*
X134740357Y-119263571D01*
X134597500Y-119192142D01*
X134526071Y-119120714D01*
X136740357Y-117763571D02*
X136454642Y-117763571D01*
X136311785Y-117835000D01*
X136240357Y-117906428D01*
X136097500Y-118120714D01*
X136026071Y-118406428D01*
X136026071Y-118977857D01*
X136097500Y-119120714D01*
X136168928Y-119192142D01*
X136311785Y-119263571D01*
X136597500Y-119263571D01*
X136740357Y-119192142D01*
X136811785Y-119120714D01*
X136883214Y-118977857D01*
X136883214Y-118620714D01*
X136811785Y-118477857D01*
X136740357Y-118406428D01*
X136597500Y-118335000D01*
X136311785Y-118335000D01*
X136168928Y-118406428D01*
X136097500Y-118477857D01*
X136026071Y-118620714D01*
X138668928Y-119263571D02*
X138668928Y-118263571D01*
X138668928Y-118549285D02*
X138740357Y-118406428D01*
X138811785Y-118335000D01*
X138954642Y-118263571D01*
X139097500Y-118263571D01*
X140168928Y-119192142D02*
X140026071Y-119263571D01*
X139740357Y-119263571D01*
X139597500Y-119192142D01*
X139526071Y-119049285D01*
X139526071Y-118477857D01*
X139597500Y-118335000D01*
X139740357Y-118263571D01*
X140026071Y-118263571D01*
X140168928Y-118335000D01*
X140240357Y-118477857D01*
X140240357Y-118620714D01*
X139526071Y-118763571D01*
X140740357Y-118263571D02*
X141097500Y-119263571D01*
X141454642Y-118263571D01*
X142811785Y-119263571D02*
X141954642Y-119263571D01*
X142383214Y-119263571D02*
X142383214Y-117763571D01*
X142240357Y-117977857D01*
X142097500Y-118120714D01*
X141954642Y-118192142D01*
X143454642Y-119120714D02*
X143526071Y-119192142D01*
X143454642Y-119263571D01*
X143383214Y-119192142D01*
X143454642Y-119120714D01*
X143454642Y-119263571D01*
X144954642Y-119263571D02*
X144097500Y-119263571D01*
X144526071Y-119263571D02*
X144526071Y-117763571D01*
X144383214Y-117977857D01*
X144240357Y-118120714D01*
X144097500Y-118192142D01*
X130097500Y-120678571D02*
X130097500Y-121892857D01*
X130026071Y-122035714D01*
X129954642Y-122107142D01*
X129811785Y-122178571D01*
X129597500Y-122178571D01*
X129454642Y-122107142D01*
X130097500Y-121607142D02*
X129954642Y-121678571D01*
X129668928Y-121678571D01*
X129526071Y-121607142D01*
X129454642Y-121535714D01*
X129383214Y-121392857D01*
X129383214Y-120964285D01*
X129454642Y-120821428D01*
X129526071Y-120750000D01*
X129668928Y-120678571D01*
X129954642Y-120678571D01*
X130097500Y-120750000D01*
X130811785Y-121678571D02*
X130811785Y-120678571D01*
X130811785Y-120178571D02*
X130740357Y-120250000D01*
X130811785Y-120321428D01*
X130883214Y-120250000D01*
X130811785Y-120178571D01*
X130811785Y-120321428D01*
X131311785Y-120678571D02*
X131883214Y-120678571D01*
X131526071Y-120178571D02*
X131526071Y-121464285D01*
X131597500Y-121607142D01*
X131740357Y-121678571D01*
X131883214Y-121678571D01*
X132383214Y-121678571D02*
X132383214Y-120178571D01*
X133026071Y-121678571D02*
X133026071Y-120892857D01*
X132954642Y-120750000D01*
X132811785Y-120678571D01*
X132597500Y-120678571D01*
X132454642Y-120750000D01*
X132383214Y-120821428D01*
X134383214Y-120678571D02*
X134383214Y-121678571D01*
X133740357Y-120678571D02*
X133740357Y-121464285D01*
X133811785Y-121607142D01*
X133954642Y-121678571D01*
X134168928Y-121678571D01*
X134311785Y-121607142D01*
X134383214Y-121535714D01*
X135097500Y-121678571D02*
X135097500Y-120178571D01*
X135097500Y-120750000D02*
X135240357Y-120678571D01*
X135526071Y-120678571D01*
X135668928Y-120750000D01*
X135740357Y-120821428D01*
X135811785Y-120964285D01*
X135811785Y-121392857D01*
X135740357Y-121535714D01*
X135668928Y-121607142D01*
X135526071Y-121678571D01*
X135240357Y-121678571D01*
X135097500Y-121607142D01*
X136454642Y-121535714D02*
X136526071Y-121607142D01*
X136454642Y-121678571D01*
X136383214Y-121607142D01*
X136454642Y-121535714D01*
X136454642Y-121678571D01*
X137811785Y-121607142D02*
X137668928Y-121678571D01*
X137383214Y-121678571D01*
X137240357Y-121607142D01*
X137168928Y-121535714D01*
X137097500Y-121392857D01*
X137097500Y-120964285D01*
X137168928Y-120821428D01*
X137240357Y-120750000D01*
X137383214Y-120678571D01*
X137668928Y-120678571D01*
X137811785Y-120750000D01*
X138668928Y-121678571D02*
X138526071Y-121607142D01*
X138454642Y-121535714D01*
X138383214Y-121392857D01*
X138383214Y-120964285D01*
X138454642Y-120821428D01*
X138526071Y-120750000D01*
X138668928Y-120678571D01*
X138883214Y-120678571D01*
X139026071Y-120750000D01*
X139097500Y-120821428D01*
X139168928Y-120964285D01*
X139168928Y-121392857D01*
X139097500Y-121535714D01*
X139026071Y-121607142D01*
X138883214Y-121678571D01*
X138668928Y-121678571D01*
X139811785Y-121678571D02*
X139811785Y-120678571D01*
X139811785Y-120821428D02*
X139883214Y-120750000D01*
X140026071Y-120678571D01*
X140240357Y-120678571D01*
X140383214Y-120750000D01*
X140454642Y-120892857D01*
X140454642Y-121678571D01*
X140454642Y-120892857D02*
X140526071Y-120750000D01*
X140668928Y-120678571D01*
X140883214Y-120678571D01*
X141026071Y-120750000D01*
X141097500Y-120892857D01*
X141097500Y-121678571D01*
X142883214Y-120107142D02*
X141597500Y-122035714D01*
X143383214Y-121678571D02*
X143383214Y-120678571D01*
X143383214Y-120821428D02*
X143454642Y-120750000D01*
X143597500Y-120678571D01*
X143811785Y-120678571D01*
X143954642Y-120750000D01*
X144026071Y-120892857D01*
X144026071Y-121678571D01*
X144026071Y-120892857D02*
X144097500Y-120750000D01*
X144240357Y-120678571D01*
X144454642Y-120678571D01*
X144597500Y-120750000D01*
X144668928Y-120892857D01*
X144668928Y-121678571D01*
X146026071Y-121678571D02*
X146026071Y-120892857D01*
X145954642Y-120750000D01*
X145811785Y-120678571D01*
X145526071Y-120678571D01*
X145383214Y-120750000D01*
X146026071Y-121607142D02*
X145883214Y-121678571D01*
X145526071Y-121678571D01*
X145383214Y-121607142D01*
X145311785Y-121464285D01*
X145311785Y-121321428D01*
X145383214Y-121178571D01*
X145526071Y-121107142D01*
X145883214Y-121107142D01*
X146026071Y-121035714D01*
X147383214Y-121678571D02*
X147383214Y-120178571D01*
X147383214Y-121607142D02*
X147240357Y-121678571D01*
X146954642Y-121678571D01*
X146811785Y-121607142D01*
X146740357Y-121535714D01*
X146668928Y-121392857D01*
X146668928Y-120964285D01*
X146740357Y-120821428D01*
X146811785Y-120750000D01*
X146954642Y-120678571D01*
X147240357Y-120678571D01*
X147383214Y-120750000D01*
X148668928Y-121607142D02*
X148526071Y-121678571D01*
X148240357Y-121678571D01*
X148097500Y-121607142D01*
X148026071Y-121464285D01*
X148026071Y-120892857D01*
X148097500Y-120750000D01*
X148240357Y-120678571D01*
X148526071Y-120678571D01*
X148668928Y-120750000D01*
X148740357Y-120892857D01*
X148740357Y-121035714D01*
X148026071Y-121178571D01*
X149383214Y-121678571D02*
X149383214Y-120178571D01*
X149383214Y-120750000D02*
X149526071Y-120678571D01*
X149811785Y-120678571D01*
X149954642Y-120750000D01*
X150026071Y-120821428D01*
X150097500Y-120964285D01*
X150097500Y-121392857D01*
X150026071Y-121535714D01*
X149954642Y-121607142D01*
X149811785Y-121678571D01*
X149526071Y-121678571D01*
X149383214Y-121607142D01*
X150597500Y-120678571D02*
X150954642Y-121678571D01*
X151311785Y-120678571D02*
X150954642Y-121678571D01*
X150811785Y-122035714D01*
X150740357Y-122107142D01*
X150597500Y-122178571D01*
X151883214Y-120678571D02*
X151883214Y-122178571D01*
X151883214Y-120750000D02*
X152026071Y-120678571D01*
X152311785Y-120678571D01*
X152454642Y-120750000D01*
X152526071Y-120821428D01*
X152597500Y-120964285D01*
X152597500Y-121392857D01*
X152526071Y-121535714D01*
X152454642Y-121607142D01*
X152311785Y-121678571D01*
X152026071Y-121678571D01*
X151883214Y-121607142D01*
X153811785Y-121607142D02*
X153668928Y-121678571D01*
X153383214Y-121678571D01*
X153240357Y-121607142D01*
X153168928Y-121464285D01*
X153168928Y-120892857D01*
X153240357Y-120750000D01*
X153383214Y-120678571D01*
X153668928Y-120678571D01*
X153811785Y-120750000D01*
X153883214Y-120892857D01*
X153883214Y-121035714D01*
X153168928Y-121178571D01*
X154526071Y-121678571D02*
X154526071Y-120678571D01*
X154526071Y-120964285D02*
X154597500Y-120821428D01*
X154668928Y-120750000D01*
X154811785Y-120678571D01*
X154954642Y-120678571D01*
X156097500Y-121607142D02*
X155954642Y-121678571D01*
X155668928Y-121678571D01*
X155526071Y-121607142D01*
X155454642Y-121535714D01*
X155383214Y-121392857D01*
X155383214Y-120964285D01*
X155454642Y-120821428D01*
X155526071Y-120750000D01*
X155668928Y-120678571D01*
X155954642Y-120678571D01*
X156097500Y-120750000D01*
X157311785Y-121607142D02*
X157168928Y-121678571D01*
X156883214Y-121678571D01*
X156740357Y-121607142D01*
X156668928Y-121464285D01*
X156668928Y-120892857D01*
X156740357Y-120750000D01*
X156883214Y-120678571D01*
X157168928Y-120678571D01*
X157311785Y-120750000D01*
X157383214Y-120892857D01*
X157383214Y-121035714D01*
X156668928Y-121178571D01*
X129454642Y-124093571D02*
X129454642Y-122593571D01*
X129454642Y-123165000D02*
X129597500Y-123093571D01*
X129883214Y-123093571D01*
X130026071Y-123165000D01*
X130097500Y-123236428D01*
X130168928Y-123379285D01*
X130168928Y-123807857D01*
X130097500Y-123950714D01*
X130026071Y-124022142D01*
X129883214Y-124093571D01*
X129597500Y-124093571D01*
X129454642Y-124022142D01*
X131454642Y-124093571D02*
X131454642Y-123307857D01*
X131383214Y-123165000D01*
X131240357Y-123093571D01*
X130954642Y-123093571D01*
X130811785Y-123165000D01*
X131454642Y-124022142D02*
X131311785Y-124093571D01*
X130954642Y-124093571D01*
X130811785Y-124022142D01*
X130740357Y-123879285D01*
X130740357Y-123736428D01*
X130811785Y-123593571D01*
X130954642Y-123522142D01*
X131311785Y-123522142D01*
X131454642Y-123450714D01*
X132097500Y-124022142D02*
X132240357Y-124093571D01*
X132526071Y-124093571D01*
X132668928Y-124022142D01*
X132740357Y-123879285D01*
X132740357Y-123807857D01*
X132668928Y-123665000D01*
X132526071Y-123593571D01*
X132311785Y-123593571D01*
X132168928Y-123522142D01*
X132097500Y-123379285D01*
X132097500Y-123307857D01*
X132168928Y-123165000D01*
X132311785Y-123093571D01*
X132526071Y-123093571D01*
X132668928Y-123165000D01*
X133954642Y-124022142D02*
X133811785Y-124093571D01*
X133526071Y-124093571D01*
X133383214Y-124022142D01*
X133311785Y-123879285D01*
X133311785Y-123307857D01*
X133383214Y-123165000D01*
X133526071Y-123093571D01*
X133811785Y-123093571D01*
X133954642Y-123165000D01*
X134026071Y-123307857D01*
X134026071Y-123450714D01*
X133311785Y-123593571D01*
X135311785Y-124093571D02*
X135311785Y-122593571D01*
X135311785Y-124022142D02*
X135168928Y-124093571D01*
X134883214Y-124093571D01*
X134740357Y-124022142D01*
X134668928Y-123950714D01*
X134597500Y-123807857D01*
X134597500Y-123379285D01*
X134668928Y-123236428D01*
X134740357Y-123165000D01*
X134883214Y-123093571D01*
X135168928Y-123093571D01*
X135311785Y-123165000D01*
X137383214Y-124093571D02*
X137240357Y-124022142D01*
X137168928Y-123950714D01*
X137097500Y-123807857D01*
X137097500Y-123379285D01*
X137168928Y-123236428D01*
X137240357Y-123165000D01*
X137383214Y-123093571D01*
X137597500Y-123093571D01*
X137740357Y-123165000D01*
X137811785Y-123236428D01*
X137883214Y-123379285D01*
X137883214Y-123807857D01*
X137811785Y-123950714D01*
X137740357Y-124022142D01*
X137597500Y-124093571D01*
X137383214Y-124093571D01*
X138526071Y-123093571D02*
X138526071Y-124093571D01*
X138526071Y-123236428D02*
X138597500Y-123165000D01*
X138740357Y-123093571D01*
X138954642Y-123093571D01*
X139097500Y-123165000D01*
X139168928Y-123307857D01*
X139168928Y-124093571D01*
X141311785Y-123379285D02*
X141311785Y-124093571D01*
X140811785Y-122593571D02*
X141311785Y-123379285D01*
X141811785Y-122593571D01*
X142240357Y-123665000D02*
X142954642Y-123665000D01*
X142097500Y-124093571D02*
X142597500Y-122593571D01*
X143097500Y-124093571D01*
X143454642Y-122593571D02*
X144383214Y-122593571D01*
X143883214Y-123165000D01*
X144097500Y-123165000D01*
X144240357Y-123236428D01*
X144311785Y-123307857D01*
X144383214Y-123450714D01*
X144383214Y-123807857D01*
X144311785Y-123950714D01*
X144240357Y-124022142D01*
X144097500Y-124093571D01*
X143668928Y-124093571D01*
X143526071Y-124022142D01*
X143454642Y-123950714D01*
X145668928Y-122593571D02*
X145383214Y-122593571D01*
X145240357Y-122665000D01*
X145168928Y-122736428D01*
X145026071Y-122950714D01*
X144954642Y-123236428D01*
X144954642Y-123807857D01*
X145026071Y-123950714D01*
X145097500Y-124022142D01*
X145240357Y-124093571D01*
X145526071Y-124093571D01*
X145668928Y-124022142D01*
X145740357Y-123950714D01*
X145811785Y-123807857D01*
X145811785Y-123450714D01*
X145740357Y-123307857D01*
X145668928Y-123236428D01*
X145526071Y-123165000D01*
X145240357Y-123165000D01*
X145097500Y-123236428D01*
X145026071Y-123307857D01*
X144954642Y-123450714D01*
X147597500Y-124093571D02*
X147597500Y-122593571D01*
X147597500Y-123165000D02*
X147740357Y-123093571D01*
X148026071Y-123093571D01*
X148168928Y-123165000D01*
X148240357Y-123236428D01*
X148311785Y-123379285D01*
X148311785Y-123807857D01*
X148240357Y-123950714D01*
X148168928Y-124022142D01*
X148026071Y-124093571D01*
X147740357Y-124093571D01*
X147597500Y-124022142D01*
X148811785Y-123093571D02*
X149168928Y-124093571D01*
X149526071Y-123093571D02*
X149168928Y-124093571D01*
X149026071Y-124450714D01*
X148954642Y-124522142D01*
X148811785Y-124593571D01*
X151168928Y-124022142D02*
X151311785Y-124093571D01*
X151597500Y-124093571D01*
X151740357Y-124022142D01*
X151811785Y-123879285D01*
X151811785Y-123807857D01*
X151740357Y-123665000D01*
X151597500Y-123593571D01*
X151383214Y-123593571D01*
X151240357Y-123522142D01*
X151168928Y-123379285D01*
X151168928Y-123307857D01*
X151240357Y-123165000D01*
X151383214Y-123093571D01*
X151597500Y-123093571D01*
X151740357Y-123165000D01*
X153026071Y-124022142D02*
X152883214Y-124093571D01*
X152597500Y-124093571D01*
X152454642Y-124022142D01*
X152383214Y-123879285D01*
X152383214Y-123307857D01*
X152454642Y-123165000D01*
X152597500Y-123093571D01*
X152883214Y-123093571D01*
X153026071Y-123165000D01*
X153097500Y-123307857D01*
X153097500Y-123450714D01*
X152383214Y-123593571D01*
X153954642Y-124093571D02*
X153811785Y-124022142D01*
X153740357Y-123879285D01*
X153740357Y-122593571D01*
X155097500Y-124022142D02*
X154954642Y-124093571D01*
X154668928Y-124093571D01*
X154526071Y-124022142D01*
X154454642Y-123879285D01*
X154454642Y-123307857D01*
X154526071Y-123165000D01*
X154668928Y-123093571D01*
X154954642Y-123093571D01*
X155097500Y-123165000D01*
X155168928Y-123307857D01*
X155168928Y-123450714D01*
X154454642Y-123593571D01*
X155668928Y-124093571D02*
X156454642Y-123093571D01*
X155668928Y-123093571D02*
X156454642Y-124093571D01*
D11*
%TO.C,SW1*%
X120597692Y-77417236D03*
D12*
X115647892Y-78559987D03*
D11*
X110698092Y-79702738D03*
D13*
X118812853Y-75243012D03*
X111956790Y-74219046D03*
%TD*%
D11*
%TO.C,SW2*%
X124196906Y-93007154D03*
D12*
X119247106Y-94149905D03*
D11*
X114297306Y-95292656D03*
D13*
X122412067Y-90832930D03*
X115556004Y-89808964D03*
%TD*%
D12*
%TO.C,SW3*%
X122846325Y-109739831D03*
D11*
X117896525Y-110882582D03*
X127796125Y-108597080D03*
D13*
X126011286Y-106422856D03*
X119155223Y-105398890D03*
%TD*%
D11*
%TO.C,SW4*%
X137292707Y-65726114D03*
X127257793Y-67315488D03*
D12*
X132275250Y-66520801D03*
D14*
X135663881Y-63432682D03*
X128895948Y-61932956D03*
%TD*%
D11*
%TO.C,SW5*%
X139795655Y-81529127D03*
D12*
X134778198Y-82323814D03*
D11*
X129760741Y-83118501D03*
D14*
X138166829Y-79235695D03*
X131398896Y-77735969D03*
%TD*%
D11*
%TO.C,SW6*%
X142298607Y-97332140D03*
D12*
X137281150Y-98126827D03*
D11*
X132263693Y-98921514D03*
D14*
X140669781Y-95038708D03*
X133901848Y-93538982D03*
%TD*%
D12*
%TO.C,SW7*%
X150259201Y-62012813D03*
D11*
X145207030Y-62543818D03*
X155311372Y-61481808D03*
D15*
X153804808Y-59106274D03*
X147124640Y-57254397D03*
%TD*%
D11*
%TO.C,SW8*%
X146879485Y-78456169D03*
D12*
X151931656Y-77925164D03*
D11*
X156983827Y-77394159D03*
D15*
X155477263Y-75018625D03*
X148797095Y-73166748D03*
%TD*%
D11*
%TO.C,SW9*%
X148551940Y-94368519D03*
D12*
X153604111Y-93837514D03*
D11*
X158656282Y-93306509D03*
D15*
X157149718Y-90930975D03*
X150469550Y-89079098D03*
%TD*%
D11*
%TO.C,SW12*%
X175932603Y-78099287D03*
D12*
X170852603Y-78099287D03*
D11*
X165772603Y-78099287D03*
D16*
X174682603Y-75579287D03*
X168232603Y-73039287D03*
%TD*%
D12*
%TO.C,SW13*%
X170852603Y-94099288D03*
D11*
X175932603Y-94099288D03*
X165772603Y-94099288D03*
D16*
X174682603Y-91579288D03*
X168232603Y-89039288D03*
%TD*%
D11*
%TO.C,SW15*%
X191932606Y-63099287D03*
D12*
X186852606Y-63099287D03*
D11*
X181772606Y-63099287D03*
D16*
X190682606Y-60579287D03*
X184232606Y-58039287D03*
%TD*%
D11*
%TO.C,SW16*%
X181772605Y-79099286D03*
X191932605Y-79099286D03*
D12*
X186852605Y-79099286D03*
D16*
X190682605Y-76579286D03*
X184232605Y-74039286D03*
%TD*%
D11*
%TO.C,SW17*%
X181772605Y-95099287D03*
D12*
X186852605Y-95099287D03*
D11*
X191932605Y-95099287D03*
D16*
X190682605Y-92579287D03*
X184232605Y-90039287D03*
%TD*%
D17*
%TO.C,U1*%
X219195799Y-54576821D03*
X220945799Y-54576821D03*
X219195799Y-61576821D03*
X220945799Y-61576821D03*
D18*
X218645799Y-64276821D03*
X221495799Y-64276821D03*
X216895799Y-63176821D03*
X223245799Y-63176821D03*
X223245799Y-59176821D03*
X216895799Y-59176821D03*
X223245799Y-56176821D03*
X216895799Y-56176821D03*
%TD*%
D19*
%TO.C,U2*%
X213833094Y-57279999D03*
X197294279Y-56084254D03*
X197294279Y-58624254D03*
X213833094Y-59819999D03*
X197294279Y-61164254D03*
X213833094Y-62359999D03*
X213833094Y-64899999D03*
X197294279Y-63704254D03*
X197294279Y-66244254D03*
X213833094Y-67439999D03*
X197294279Y-68784254D03*
X213833094Y-69979999D03*
X213833094Y-72519999D03*
X197294279Y-71324254D03*
X213833094Y-75059999D03*
X197294279Y-73864254D03*
X213833094Y-77599999D03*
X197294279Y-76404254D03*
X197294279Y-78944254D03*
X213833094Y-80139999D03*
X197294279Y-81484254D03*
X213833094Y-82679999D03*
X197294279Y-84024254D03*
X213833094Y-85219999D03*
X198593094Y-85219999D03*
X212534279Y-84024254D03*
X212534279Y-81484254D03*
X198593094Y-82679999D03*
X212534279Y-78944254D03*
X198593094Y-80139999D03*
X212534279Y-76404254D03*
X198593094Y-77599999D03*
X212534279Y-73864254D03*
X198593094Y-75059999D03*
X198593094Y-72519999D03*
X212534279Y-71324254D03*
X198593094Y-69979999D03*
X212534279Y-68784254D03*
X212534279Y-66244254D03*
X198593094Y-67439999D03*
X198593094Y-64899999D03*
X212534279Y-63704254D03*
X212534279Y-61164254D03*
X198593094Y-62359999D03*
X212534279Y-58624254D03*
X198593094Y-59819999D03*
X212534279Y-56084254D03*
X198593094Y-57279999D03*
%TD*%
D11*
%TO.C,SW11*%
X175932605Y-62099287D03*
D12*
X170852605Y-62099287D03*
D11*
X165772605Y-62099287D03*
D16*
X174682605Y-59579287D03*
X168232605Y-57039287D03*
%TD*%
D11*
%TO.C,SW14*%
X201052607Y-113489226D03*
X191017693Y-111899852D03*
D12*
X196035150Y-112694539D03*
D20*
X200212211Y-110804708D03*
X194238965Y-107286978D03*
%TD*%
D12*
%TO.C,SW18*%
X212999333Y-116954097D03*
D11*
X208196099Y-115300211D03*
X217802567Y-118607983D03*
D21*
X217441101Y-115818316D03*
X212169449Y-111316784D03*
%TD*%
D11*
%TO.C,SW10*%
X173687254Y-111287018D03*
D12*
X178767254Y-111287018D03*
D11*
X183847254Y-111287018D03*
D16*
X182597254Y-108767018D03*
X176147254Y-106227018D03*
%TD*%
D22*
%TO.C,*%
X197000000Y-124300000D03*
%TD*%
%TO.C,*%
X112300000Y-110800000D03*
%TD*%
%TO.C,Ref\u002A\u002A*%
X111400000Y-67800000D03*
%TD*%
D23*
%TO.C,RSW1*%
X220600000Y-68550000D03*
X220600000Y-75050000D03*
%TD*%
D24*
%TO.C,D19*%
X213789569Y-98814958D03*
X213789569Y-95614958D03*
X208889569Y-95614958D03*
X208889569Y-98814958D03*
%TD*%
%TO.C,D20*%
X112989999Y-60914956D03*
X112989999Y-57714956D03*
X108089999Y-57714956D03*
X108089999Y-60914956D03*
%TD*%
%TO.C,D21*%
X114670000Y-123860000D03*
X114670000Y-120660000D03*
X109770000Y-120660000D03*
X109770000Y-123860000D03*
%TD*%
D25*
%TO.C,D1*%
X115179976Y-84312685D03*
X118590272Y-83525357D03*
%TD*%
%TO.C,D2*%
X118779192Y-99902606D03*
X122189488Y-99115278D03*
%TD*%
%TO.C,D3*%
X122378407Y-115492525D03*
X125788703Y-114705197D03*
%TD*%
D26*
%TO.C,D4*%
X131407181Y-72226844D03*
X134864091Y-71679324D03*
%TD*%
%TO.C,D5*%
X133910135Y-88029860D03*
X137367045Y-87482340D03*
%TD*%
%TO.C,D6*%
X136413084Y-103832874D03*
X139869994Y-103285354D03*
%TD*%
D27*
%TO.C,D7*%
X149093694Y-67665610D03*
X152574520Y-67299760D03*
%TD*%
%TO.C,D8*%
X150766150Y-83577959D03*
X154246976Y-83212109D03*
%TD*%
%TO.C,D9*%
X152438605Y-99490309D03*
X155919431Y-99124459D03*
%TD*%
D28*
%TO.C,D11*%
X169102606Y-67599286D03*
X172602606Y-67599286D03*
%TD*%
%TO.C,D12*%
X169102604Y-83599285D03*
X172602604Y-83599285D03*
%TD*%
%TO.C,D13*%
X169102604Y-99599285D03*
X172602604Y-99599285D03*
%TD*%
%TO.C,D16*%
X185102604Y-84599285D03*
X188602604Y-84599285D03*
%TD*%
%TO.C,D17*%
X185102604Y-100599287D03*
X188602604Y-100599287D03*
%TD*%
%TO.C,D15*%
X185102605Y-68599286D03*
X188602605Y-68599286D03*
%TD*%
D29*
%TO.C,D18*%
X209554047Y-121584704D03*
X212863363Y-122724192D03*
%TD*%
D30*
%TO.C,D14*%
X193446304Y-117853062D03*
X196903214Y-118400582D03*
%TD*%
D28*
%TO.C,D10*%
X177017254Y-116787017D03*
X180517254Y-116787017D03*
%TD*%
M02*
