M48
; DRILL file {KiCad (5.99.0-11661-g1332208ab1)} date Mon Aug 23 15:05:51 2021
; FORMAT={-:-/ absolute / inch / decimal}
; #@! TF.CreationDate,2021-08-23T15:05:51-04:00
; #@! TF.GenerationSoftware,Kicad,Pcbnew,(5.99.0-11661-g1332208ab1)
; #@! TF.FileFunction,Plated,1,2,PTH
FMAT,2
INCH
; #@! TA.AperFunction,Plated,PTH,ViaDrill
T1C0.0157
; #@! TA.AperFunction,Plated,PTH,ComponentDrill
T2C0.0157
; #@! TA.AperFunction,Plated,PTH,ComponentDrill
T3C0.0197
; #@! TA.AperFunction,Plated,PTH,ComponentDrill
T4C0.0320
; #@! TA.AperFunction,Plated,PTH,ComponentDrill
T5C0.0354
; #@! TA.AperFunction,Plated,PTH,ComponentDrill
T6C0.0512
%
G90
G05
T1
X4.3201Y-4.8764
X4.4488Y-2.2717
X4.4488Y-2.3976
X4.5146Y-4.8764
X4.5161Y-4.75
X4.6417Y-2.3976
X4.6457Y-2.2717
X4.7075Y-4.7504
X5.4861Y-2.805
X7.5354Y-3.3386
X7.6417Y-3.2323
X7.6801Y-3.4882
X7.6811Y-3.6772
X8.3858Y-3.9514
X8.4173Y-3.7638
X8.4173Y-3.8898
X8.6098Y-3.7644
X8.6098Y-3.8874
X8.726Y-3.8878
T3
X4.5346Y-3.3194
X4.6689Y-3.2884
X4.6763Y-3.9332
X4.8106Y-3.9022
X4.818Y-4.5469
X4.9523Y-4.516
X5.1735Y-2.8436
X5.2721Y-3.4657
X5.3096Y-2.822
X5.3706Y-4.0879
X5.4082Y-3.4442
X5.5067Y-4.0664
X5.8698Y-2.664
X5.9357Y-3.2905
X6.0015Y-3.9169
X6.0069Y-2.6496
X6.0727Y-3.2761
X6.1386Y-3.9025
X6.6576Y-3.2913
X6.6576Y-3.9212
X6.6576Y-2.6614
X6.7954Y-3.2913
X6.7954Y-3.9212
X6.7954Y-2.6614
X6.9692Y-4.5979
X7.107Y-4.5979
X7.2875Y-3.3307
X7.2875Y-3.9606
X7.2875Y-2.7008
X7.4253Y-3.3307
X7.4253Y-3.9606
X7.4253Y-2.7008
X7.616Y-4.6399
X7.7521Y-4.6614
X8.2502Y-4.7868
X8.3804Y-4.8317
T4
X7.7675Y-2.208
X7.7675Y-2.308
X7.7675Y-2.408
X7.7675Y-2.508
X7.7675Y-2.608
X7.7675Y-2.708
X7.7675Y-2.808
X7.7675Y-2.908
X7.7675Y-3.008
X7.7675Y-3.108
X7.7675Y-3.208
X7.7675Y-3.308
X7.8186Y-2.2551
X7.8186Y-2.3551
X7.8186Y-2.4551
X7.8186Y-2.5551
X7.8186Y-2.6551
X7.8186Y-2.7551
X7.8186Y-2.8551
X7.8186Y-2.9551
X7.8186Y-3.0551
X7.8186Y-3.1551
X7.8186Y-3.2551
X7.8186Y-3.3551
X8.3675Y-2.208
X8.3675Y-2.308
X8.3675Y-2.408
X8.3675Y-2.508
X8.3675Y-2.608
X8.3675Y-2.708
X8.3675Y-2.808
X8.3675Y-2.908
X8.3675Y-3.008
X8.3675Y-3.108
X8.3675Y-3.208
X8.3675Y-3.308
X8.4186Y-2.2551
X8.4186Y-2.3551
X8.4186Y-2.4551
X8.4186Y-2.5551
X8.4186Y-2.6551
X8.4186Y-2.7551
X8.4186Y-2.8551
X8.4186Y-2.9551
X8.4186Y-3.0551
X8.4186Y-3.1551
X8.4186Y-3.2551
X8.4186Y-3.3551
T6
X8.685Y-2.6988
X8.685Y-2.9547
T2
G00X4.3691Y-3.0328
M15
G01X4.3998Y-3.0257
M16
G05
G00X4.4269Y-2.9176
M15
G01X4.3886Y-2.9264
M16
G05
G00X4.5108Y-3.6465
M15
G01X4.5415Y-3.6395
M16
G05
G00X4.5686Y-3.5314
M15
G01X4.5303Y-3.5402
M16
G05
G00X4.5902Y-2.8791
M15
G01X4.6285Y-2.8702
M16
G05
G00X4.6525Y-4.2603
M15
G01X4.6832Y-4.2532
M16
G05
G00X4.693Y-2.9588
M15
G01X4.6623Y-2.9659
M16
G05
G00X4.7103Y-4.1451
M15
G01X4.672Y-4.154
M16
G05
G00X4.7319Y-3.4929
M15
G01X4.7702Y-3.484
M16
G05
G00X4.8347Y-3.5726
M15
G01X4.804Y-3.5796
M16
G05
G00X4.8736Y-4.1066
M15
G01X4.9119Y-4.0978
M16
G05
G00X4.9764Y-4.1863
M15
G01X4.9457Y-4.1934
M16
G05
G00X5.0283Y-2.5461
M15
G01X5.0594Y-2.5412
M16
G05
G00X5.0941Y-2.4352
M15
G01X5.0552Y-2.4414
M16
G05
G00X5.1269Y-3.1683
M15
G01X5.158Y-3.1633
M16
G05
G00X5.1926Y-3.0574
M15
G01X5.1537Y-3.0636
M16
G05
G00X5.2254Y-3.7904
M15
G01X5.2565Y-3.7855
M16
G05
G00X5.2912Y-3.6796
M15
G01X5.2523Y-3.6857
M16
G05
G00X5.2596Y-2.4082
M15
G01X5.2985Y-2.4021
M16
G05
G00X5.3567Y-2.4949
M15
G01X5.3255Y-2.4998
M16
G05
G00X5.3582Y-3.0304
M15
G01X5.397Y-3.0242
M16
G05
G00X5.4552Y-3.1171
M15
G01X5.4241Y-3.122
M16
G05
G00X5.4567Y-3.6525
M15
G01X5.4956Y-3.6464
M16
G05
G00X5.5537Y-3.7392
M15
G01X5.5226Y-3.7441
M16
G05
G00X5.7404Y-2.3593
M15
G01X5.7717Y-2.356
M16
G05
G00X5.8119Y-2.2521
M15
G01X5.7727Y-2.2562
M16
G05
G00X5.8063Y-2.9858
M15
G01X5.8376Y-2.9825
M16
G05
G00X5.8777Y-2.8785
M15
G01X5.8386Y-2.8826
M16
G05
G00X5.8721Y-3.6123
M15
G01X5.9034Y-3.609
M16
G05
G00X5.9436Y-3.505
M15
G01X5.9044Y-3.5091
M16
G05
G00X5.9786Y-2.2337
M15
G01X6.0178Y-2.2296
M16
G05
G00X6.071Y-2.3254
M15
G01X6.0396Y-2.3287
M16
G05
G00X6.0444Y-2.8602
M15
G01X6.0836Y-2.8561
M16
G05
G00X6.1368Y-2.9518
M15
G01X6.1055Y-2.9551
M16
G05
G00X6.1103Y-3.4867
M15
G01X6.1494Y-3.4826
M16
G05
G00X6.2027Y-3.5783
M15
G01X6.1713Y-3.5816
M16
G05
G00X6.5607Y-2.9748
M15
G01X6.5922Y-2.9748
M16
G05
G00X6.5607Y-3.6047
M15
G01X6.5922Y-3.6047
M16
G05
G00X6.5607Y-2.3449
M15
G01X6.5922Y-2.3449
M16
G05
G00X6.643Y-2.8756
M15
G01X6.6036Y-2.8756
M16
G05
G00X6.643Y-3.5055
M15
G01X6.6036Y-3.5055
M16
G05
G00X6.643Y-2.2456
M15
G01X6.6036Y-2.2456
M16
G05
G00X6.8107Y-2.8748
M15
G01X6.8501Y-2.8748
M16
G05
G00X6.8107Y-3.5047
M15
G01X6.8501Y-3.5047
M16
G05
G00X6.8107Y-2.2449
M15
G01X6.8501Y-2.2449
M16
G05
G00X6.893Y-2.9756
M15
G01X6.8615Y-2.9756
M16
G05
G00X6.893Y-3.6055
M15
G01X6.8615Y-3.6055
M16
G05
G00X6.893Y-2.3456
M15
G01X6.8615Y-2.3456
M16
G05
G00X6.8723Y-4.2814
M15
G01X6.9038Y-4.2814
M16
G05
G00X6.9546Y-4.1822
M15
G01X6.9152Y-4.1822
M16
G05
G00X7.1223Y-4.1814
M15
G01X7.1617Y-4.1814
M16
G05
G00X7.2046Y-4.2822
M15
G01X7.1731Y-4.2822
M16
G05
G00X7.1907Y-3.0141
M15
G01X7.2221Y-3.0141
M16
G05
G00X7.1907Y-3.6441
M15
G01X7.2221Y-3.6441
M16
G05
G00X7.1907Y-2.3842
M15
G01X7.2221Y-2.3842
M16
G05
G00X7.2729Y-2.9149
M15
G01X7.2336Y-2.9149
M16
G05
G00X7.2729Y-3.5449
M15
G01X7.2336Y-3.5449
M16
G05
G00X7.2729Y-2.285
M15
G01X7.2336Y-2.285
M16
G05
G00X7.4407Y-2.9141
M15
G01X7.48Y-2.9141
M16
G05
G00X7.4407Y-3.5441
M15
G01X7.48Y-3.5441
M16
G05
G00X7.4407Y-2.2842
M15
G01X7.48Y-2.2842
M16
G05
G00X7.5229Y-3.0149
M15
G01X7.4914Y-3.0149
M16
G05
G00X7.5229Y-3.6449
M15
G01X7.4914Y-3.6449
M16
G05
G00X7.5229Y-2.385
M15
G01X7.4914Y-2.385
M16
G05
G00X7.5699Y-4.3121
M15
G01X7.601Y-4.317
M16
G05
G00X7.6666Y-4.227
M15
G01X7.6278Y-4.2208
M16
G05
G00X7.8324Y-4.2524
M15
G01X7.8713Y-4.2586
M16
G05
G00X7.8979Y-4.3649
M15
G01X7.8668Y-4.3599
M16
G05
G00X8.2616Y-4.456
M15
G01X8.2914Y-4.4662
M16
G05
G00X8.3717Y-4.389
M15
G01X8.3345Y-4.3761
M16
G05
G00X8.5306Y-4.4428
M15
G01X8.5678Y-4.4556
M16
G05
G00X8.5756Y-4.5649
M15
G01X8.5458Y-4.5546
M16
G05
T5
G00X8.5392Y-2.2235
M15
G01X8.5392Y-2.1999
M16
G05
G00X8.5392Y-2.3416
M15
G01X8.5392Y-2.318
M16
G05
G00X8.5392Y-2.4991
M15
G01X8.5392Y-2.4755
M16
G05
G00X8.6081Y-2.5188
M15
G01X8.6081Y-2.5424
M16
G05
G00X8.7203Y-2.5424
M15
G01X8.7203Y-2.5188
M16
G05
G00X8.7892Y-2.1999
M15
G01X8.7892Y-2.2235
M16
G05
G00X8.7892Y-2.318
M15
G01X8.7892Y-2.3416
M16
G05
G00X8.7892Y-2.4755
M15
G01X8.7892Y-2.4991
M16
G05
T0
M30
