%TF.GenerationSoftware,KiCad,Pcbnew,(5.99.0-11661-g1332208ab1)*%
%TF.CreationDate,2021-08-23T15:05:43-04:00*%
%TF.ProjectId,tapir36,74617069-7233-4362-9e6b-696361645f70,rev?*%
%TF.SameCoordinates,Original*%
%TF.FileFunction,Legend,Top*%
%TF.FilePolarity,Positive*%
%FSLAX46Y46*%
G04 Gerber Fmt 4.6, Leading zero omitted, Abs format (unit mm)*
G04 Created by KiCad (PCBNEW (5.99.0-11661-g1332208ab1)) date 2021-08-23 15:05:43*
%MOMM*%
%LPD*%
G01*
G04 APERTURE LIST*
%ADD10C,0.150000*%
%ADD11C,0.120000*%
%ADD12C,1.524000*%
%ADD13C,2.000000*%
G04 APERTURE END LIST*
D10*
%TO.C,*%
%TO.C,RSW1*%
X221052380Y-73252380D02*
X220576190Y-73585714D01*
X221052380Y-73823809D02*
X220052380Y-73823809D01*
X220052380Y-73442857D01*
X220100000Y-73347619D01*
X220147619Y-73300000D01*
X220242857Y-73252380D01*
X220385714Y-73252380D01*
X220480952Y-73300000D01*
X220528571Y-73347619D01*
X220576190Y-73442857D01*
X220576190Y-73823809D01*
X220528571Y-72823809D02*
X220528571Y-72490476D01*
X221052380Y-72347619D02*
X221052380Y-72823809D01*
X220052380Y-72823809D01*
X220052380Y-72347619D01*
X221004761Y-71966666D02*
X221052380Y-71823809D01*
X221052380Y-71585714D01*
X221004761Y-71490476D01*
X220957142Y-71442857D01*
X220861904Y-71395238D01*
X220766666Y-71395238D01*
X220671428Y-71442857D01*
X220623809Y-71490476D01*
X220576190Y-71585714D01*
X220528571Y-71776190D01*
X220480952Y-71871428D01*
X220433333Y-71919047D01*
X220338095Y-71966666D01*
X220242857Y-71966666D01*
X220147619Y-71919047D01*
X220100000Y-71871428D01*
X220052380Y-71776190D01*
X220052380Y-71538095D01*
X220100000Y-71395238D01*
X220528571Y-70966666D02*
X220528571Y-70633333D01*
X221052380Y-70490476D02*
X221052380Y-70966666D01*
X220052380Y-70966666D01*
X220052380Y-70490476D01*
X220052380Y-70204761D02*
X220052380Y-69633333D01*
X221052380Y-69919047D02*
X220052380Y-69919047D01*
%TO.C,U2*%
X197323094Y-86489999D02*
X199863094Y-86489999D01*
X215103094Y-56009999D02*
X212563094Y-56009999D01*
X215103094Y-86489999D02*
X215103094Y-56009999D01*
X199863094Y-86489999D02*
X199863094Y-56009999D01*
X197323094Y-56009999D02*
X197323094Y-86489999D01*
X215103094Y-53469999D02*
X197323094Y-53469999D01*
X212563094Y-56009999D02*
X212563094Y-86489999D01*
X212563094Y-86489999D02*
X215103094Y-86489999D01*
X197323094Y-53469999D02*
X197323094Y-86489999D01*
X199863094Y-56009999D02*
X197323094Y-56009999D01*
X215103094Y-86489999D02*
X215103094Y-53469999D01*
%TO.C,RSW1*%
X218850000Y-74800000D02*
X219100000Y-74800000D01*
X222350000Y-74800000D02*
X222100000Y-74800000D01*
X222350000Y-68800000D02*
X222100000Y-68800000D01*
X222350000Y-74800000D02*
X222350000Y-68800000D01*
X218850000Y-74800000D02*
X218850000Y-68800000D01*
X218850000Y-68800000D02*
X219100000Y-68800000D01*
D11*
%TO.C,D19*%
X214989569Y-94464958D02*
X207689569Y-94464958D01*
X207689569Y-94464958D02*
X207689569Y-95614958D01*
%TO.C,D20*%
X114189999Y-56564956D02*
X106889999Y-56564956D01*
X106889999Y-56564956D02*
X106889999Y-57714956D01*
%TO.C,D21*%
X108570000Y-119510000D02*
X108570000Y-120660000D01*
X115870000Y-119510000D02*
X108570000Y-119510000D01*
%TO.C,D1*%
X116544094Y-83997754D02*
X117218697Y-84252531D01*
X116592813Y-83986506D02*
X116105628Y-84098982D01*
X118365321Y-82550987D02*
X114175529Y-83518276D01*
X114175529Y-83518276D02*
X114625431Y-85467016D01*
X116420371Y-83461850D02*
X116667818Y-84533657D01*
X116544094Y-83997754D02*
X117038736Y-83473035D01*
X117038736Y-83473035D02*
X117218697Y-84252531D01*
X117128717Y-83862783D02*
X117615902Y-83750308D01*
X114625431Y-85467016D02*
X118815223Y-84499727D01*
%TO.C,D2*%
X120019587Y-99051771D02*
X120267034Y-100123578D01*
X120143310Y-99587675D02*
X120637952Y-99062956D01*
X118224647Y-101056937D02*
X122414439Y-100089648D01*
X117774745Y-99108197D02*
X118224647Y-101056937D01*
X120637952Y-99062956D02*
X120817913Y-99842452D01*
X120143310Y-99587675D02*
X120817913Y-99842452D01*
X121964537Y-98140908D02*
X117774745Y-99108197D01*
X120727933Y-99452704D02*
X121215118Y-99340229D01*
X120192029Y-99576427D02*
X119704844Y-99688903D01*
%TO.C,D3*%
X124327148Y-115042623D02*
X124814333Y-114930148D01*
X121373960Y-114698116D02*
X121823862Y-116646856D01*
X123742525Y-115177594D02*
X124237167Y-114652875D01*
X121823862Y-116646856D02*
X126013654Y-115679567D01*
X123742525Y-115177594D02*
X124417128Y-115432371D01*
X123618802Y-114641690D02*
X123866249Y-115713497D01*
X123791244Y-115166346D02*
X123304059Y-115278822D01*
X125563752Y-113730827D02*
X121373960Y-114698116D01*
X124237167Y-114652875D02*
X124417128Y-115432371D01*
%TO.C,D4*%
X130773465Y-73339680D02*
X135020525Y-72667012D01*
X132839329Y-72000014D02*
X132345485Y-72078232D01*
X133319984Y-71518900D02*
X133445132Y-72309051D01*
X132789945Y-72007836D02*
X133319984Y-71518900D01*
X130460596Y-71364304D02*
X130773465Y-73339680D01*
X134707656Y-70691635D02*
X130460596Y-71364304D01*
X132703906Y-71464607D02*
X132875984Y-72551065D01*
X133382558Y-71913975D02*
X133876402Y-71835758D01*
X132789945Y-72007836D02*
X133445132Y-72309051D01*
%TO.C,D5*%
X135822938Y-87321916D02*
X135948086Y-88112067D01*
X133276419Y-89142696D02*
X137523479Y-88470028D01*
X135342283Y-87803030D02*
X134848439Y-87881248D01*
X135206860Y-87267623D02*
X135378938Y-88354081D01*
X132963550Y-87167320D02*
X133276419Y-89142696D01*
X135292899Y-87810852D02*
X135948086Y-88112067D01*
X137210610Y-86494651D02*
X132963550Y-87167320D01*
X135885512Y-87716991D02*
X136379356Y-87638774D01*
X135292899Y-87810852D02*
X135822938Y-87321916D01*
%TO.C,D6*%
X137795848Y-103613866D02*
X138451035Y-103915081D01*
X139713559Y-102297665D02*
X135466499Y-102970334D01*
X138325887Y-103124930D02*
X138451035Y-103915081D01*
X135466499Y-102970334D02*
X135779368Y-104945710D01*
X137795848Y-103613866D02*
X138325887Y-103124930D01*
X138388461Y-103520005D02*
X138882305Y-103441788D01*
X137845232Y-103606044D02*
X137351388Y-103684262D01*
X137709809Y-103070637D02*
X137881887Y-104157095D01*
X135779368Y-104945710D02*
X140026428Y-104273042D01*
%TO.C,D7*%
X150486024Y-67519270D02*
X151124549Y-67854362D01*
X148402605Y-68743754D02*
X152679049Y-68294282D01*
X150535750Y-67514044D02*
X150038489Y-67566308D01*
X151082737Y-67456553D02*
X151579998Y-67404289D01*
X150486024Y-67519270D02*
X151040926Y-67058744D01*
X150428534Y-66972283D02*
X150543515Y-68066257D01*
X148193548Y-66754711D02*
X148402605Y-68743754D01*
X152469992Y-66305238D02*
X148193548Y-66754711D01*
X151040926Y-67058744D02*
X151124549Y-67854362D01*
%TO.C,D8*%
X154142448Y-82217587D02*
X149866004Y-82667060D01*
X152208206Y-83426393D02*
X151710945Y-83478657D01*
X152158480Y-83431619D02*
X152713382Y-82971093D01*
X152755193Y-83368902D02*
X153252454Y-83316638D01*
X150075061Y-84656103D02*
X154351505Y-84206631D01*
X149866004Y-82667060D02*
X150075061Y-84656103D01*
X152158480Y-83431619D02*
X152797005Y-83766711D01*
X152100990Y-82884632D02*
X152215971Y-83978606D01*
X152713382Y-82971093D02*
X152797005Y-83766711D01*
%TO.C,D9*%
X151747516Y-100568453D02*
X156023960Y-100118981D01*
X154427648Y-99281252D02*
X154924909Y-99228988D01*
X155814903Y-98129937D02*
X151538459Y-98579410D01*
X154385837Y-98883443D02*
X154469460Y-99679061D01*
X153880661Y-99338743D02*
X153383400Y-99391007D01*
X151538459Y-98579410D02*
X151747516Y-100568453D01*
X153830935Y-99343969D02*
X154469460Y-99679061D01*
X153830935Y-99343969D02*
X154385837Y-98883443D01*
X153773445Y-98796982D02*
X153888426Y-99890956D01*
%TO.C,D11*%
X170502606Y-67599286D02*
X171102606Y-67999286D01*
X172602606Y-66599286D02*
X168302606Y-66599286D01*
X168302606Y-68599286D02*
X172602606Y-68599286D01*
X170502606Y-67599286D02*
X171102606Y-67199286D01*
X170502606Y-67049286D02*
X170502606Y-68149286D01*
X171102606Y-67199286D02*
X171102606Y-67999286D01*
X170552606Y-67599286D02*
X170052606Y-67599286D01*
X171102606Y-67599286D02*
X171602606Y-67599286D01*
X168302606Y-66599286D02*
X168302606Y-68599286D01*
%TO.C,D12*%
X171102604Y-83199285D02*
X171102604Y-83999285D01*
X168302604Y-84599285D02*
X172602604Y-84599285D01*
X170502604Y-83049285D02*
X170502604Y-84149285D01*
X170552604Y-83599285D02*
X170052604Y-83599285D01*
X171102604Y-83599285D02*
X171602604Y-83599285D01*
X168302604Y-82599285D02*
X168302604Y-84599285D01*
X170502604Y-83599285D02*
X171102604Y-83999285D01*
X170502604Y-83599285D02*
X171102604Y-83199285D01*
X172602604Y-82599285D02*
X168302604Y-82599285D01*
%TO.C,D13*%
X168302604Y-100599285D02*
X172602604Y-100599285D01*
X170502604Y-99599285D02*
X171102604Y-99999285D01*
X170552604Y-99599285D02*
X170052604Y-99599285D01*
X168302604Y-98599285D02*
X168302604Y-100599285D01*
X172602604Y-98599285D02*
X168302604Y-98599285D01*
X171102604Y-99599285D02*
X171602604Y-99599285D01*
X170502604Y-99599285D02*
X171102604Y-99199285D01*
X170502604Y-99049285D02*
X170502604Y-100149285D01*
X171102604Y-99199285D02*
X171102604Y-99999285D01*
%TO.C,D16*%
X184302604Y-85599285D02*
X188602604Y-85599285D01*
X187102604Y-84599285D02*
X187602604Y-84599285D01*
X187102604Y-84199285D02*
X187102604Y-84999285D01*
X184302604Y-83599285D02*
X184302604Y-85599285D01*
X188602604Y-83599285D02*
X184302604Y-83599285D01*
X186502604Y-84049285D02*
X186502604Y-85149285D01*
X186552604Y-84599285D02*
X186052604Y-84599285D01*
X186502604Y-84599285D02*
X187102604Y-84999285D01*
X186502604Y-84599285D02*
X187102604Y-84199285D01*
%TO.C,D17*%
X184302604Y-101599287D02*
X188602604Y-101599287D01*
X184302604Y-99599287D02*
X184302604Y-101599287D01*
X186552604Y-100599287D02*
X186052604Y-100599287D01*
X186502604Y-100599287D02*
X187102604Y-100199287D01*
X187102604Y-100199287D02*
X187102604Y-100999287D01*
X186502604Y-100049287D02*
X186502604Y-101149287D01*
X186502604Y-100599287D02*
X187102604Y-100999287D01*
X188602604Y-99599287D02*
X184302604Y-99599287D01*
X187102604Y-100599287D02*
X187602604Y-100599287D01*
%TO.C,D15*%
X186502605Y-68049286D02*
X186502605Y-69149286D01*
X187102605Y-68199286D02*
X187102605Y-68999286D01*
X186552605Y-68599286D02*
X186052605Y-68599286D01*
X187102605Y-68599286D02*
X187602605Y-68599286D01*
X188602605Y-67599286D02*
X184302605Y-67599286D01*
X184302605Y-69599286D02*
X188602605Y-69599286D01*
X186502605Y-68599286D02*
X187102605Y-68999286D01*
X184302605Y-67599286D02*
X184302605Y-69599286D01*
X186502605Y-68599286D02*
X187102605Y-68199286D01*
%TO.C,D18*%
X211056836Y-121520464D02*
X210698711Y-122560534D01*
X211445085Y-122235840D02*
X211917844Y-122398624D01*
X210877773Y-122040499D02*
X211575312Y-121857633D01*
X208472064Y-122269768D02*
X212537794Y-123669711D01*
X209123201Y-120378731D02*
X208472064Y-122269768D01*
X210925049Y-122056778D02*
X210452290Y-121893993D01*
X211575312Y-121857633D02*
X211314857Y-122614047D01*
X213188931Y-121778674D02*
X209123201Y-120378731D01*
X210877773Y-122040499D02*
X211314857Y-122614047D01*
%TO.C,D14*%
X192499719Y-118715602D02*
X196746779Y-119388271D01*
X192812588Y-116740226D02*
X192499719Y-118715602D01*
X197059648Y-117412894D02*
X192812588Y-116740226D01*
X195484255Y-117770855D02*
X195359107Y-118561006D01*
X194915107Y-117528841D02*
X194743029Y-118615299D01*
X195421681Y-118165931D02*
X195915525Y-118244148D01*
X194829068Y-118072070D02*
X195484255Y-117770855D01*
X194829068Y-118072070D02*
X195359107Y-118561006D01*
X194878452Y-118079892D02*
X194384608Y-118001674D01*
%TO.C,D10*%
X178417254Y-116787017D02*
X179017254Y-116387017D01*
X178417254Y-116787017D02*
X179017254Y-117187017D01*
X176217254Y-117787017D02*
X180517254Y-117787017D01*
X178417254Y-116237017D02*
X178417254Y-117337017D01*
X178467254Y-116787017D02*
X177967254Y-116787017D01*
X176217254Y-115787017D02*
X176217254Y-117787017D01*
X180517254Y-115787017D02*
X176217254Y-115787017D01*
X179017254Y-116387017D02*
X179017254Y-117187017D01*
X179017254Y-116787017D02*
X179517254Y-116787017D01*
%TD*%
D12*
%TO.C,U2*%
X197294279Y-56084254D03*
X197294279Y-58624254D03*
X197294279Y-61164254D03*
X197294279Y-63704254D03*
X197294279Y-66244254D03*
X197294279Y-68784254D03*
X197294279Y-71324254D03*
X197294279Y-73864254D03*
X197294279Y-76404254D03*
X197294279Y-78944254D03*
X197294279Y-81484254D03*
X197294279Y-84024254D03*
X212534279Y-84024254D03*
X212534279Y-81484254D03*
X212534279Y-78944254D03*
X212534279Y-76404254D03*
X212534279Y-73864254D03*
X212534279Y-71324254D03*
X212534279Y-68784254D03*
X212534279Y-66244254D03*
X212534279Y-63704254D03*
X212534279Y-61164254D03*
X212534279Y-58624254D03*
X212534279Y-56084254D03*
%TD*%
D13*
%TO.C,RSW1*%
X220600000Y-68550000D03*
X220600000Y-75050000D03*
%TD*%
M02*
