0
SECTION
2
HEADER
9
$INSUNITS
70
4
9
$ACADVER
1
AC1014
9
$HANDSEED
5
FFFF
0
ENDSEC
0
SECTION
2
TABLES
0
TABLE
2
VPORT
5
8
100
AcDbSymbolTable
0
ENDTAB
0
TABLE
2
LTYPE
5
5
100
AcDbSymbolTable
0
LTYPE
5
14
100
AcDbSymbolTableRecord
100
AcDbLinetypeTableRecord
2
BYBLOCK
70
0
0
LTYPE
5
15
100
AcDbSymbolTableRecord
100
AcDbLinetypeTableRecord
2
BYLAYER
70
0
0
ENDTAB
0
TABLE
2
LAYER
5
2
100
AcDbSymbolTable
70
2
0
LAYER
5
50
100
AcDbSymbolTableRecord
100
AcDbLayerTableRecord
2
0
70
0
6
CONTINUOUS
0
ENDTAB
0
TABLE
2
STYLE
5
3
100
AcDbSymbolTable
70
1
0
STYLE
5
11
100
AcDbSymbolTableRecord
100
AcDbTextStyleTableRecord
2
STANDARD
70
0
0
ENDTAB
0
TABLE
2
VIEW
5
6
100
AcDbSymbolTable
70
0
0
ENDTAB
0
TABLE
2
UCS
5
7
100
AcDbSymbolTable
70
0
0
ENDTAB
0
TABLE
2
APPID
5
9
100
AcDbSymbolTable
70
2
0
APPID
5
12
100
AcDbSymbolTableRecord
100
AcDbRegAppTableRecord
2
ACAD
70
0
0
ENDTAB
0
TABLE
2
DIMSTYLE
5
A
100
AcDbSymbolTable
70
1
0
ENDTAB
0
TABLE
2
BLOCK_RECORD
5
1
100
AcDbSymbolTable
70
1
0
BLOCK_RECORD
5
1F
100
AcDbSymbolTableRecord
100
AcDbBlockTableRecord
2
*MODEL_SPACE
0
BLOCK_RECORD
5
1B
100
AcDbSymbolTableRecord
100
AcDbBlockTableRecord
2
*PAPER_SPACE
0
ENDTAB
0
ENDSEC
0
SECTION
2
BLOCKS
0
BLOCK
5
20
100
AcDbEntity
100
AcDbBlockBegin
2
*MODEL_SPACE
0
ENDBLK
5
21
100
AcDbEntity
100
AcDbBlockEnd
0
BLOCK
5
1C
100
AcDbEntity
100
AcDbBlockBegin
2
*PAPER_SPACE
0
ENDBLK
5
1D
100
AcDbEntity
100
AcDbBlockEnd
0
ENDSEC
0
SECTION
2
ENTITIES
0
ARC
5
100
100
AcDbEntity
8
0
100
AcDbCircle
10
-59.499878860195928
20
36.499878860195906
30
0
40
8.0001211407212338
210
2.1013769793951416e-21
220
-1.3877577663752556e-16
230
1
100
AcDbArc
50
90.00086758680078
51
179.9991324134692
0
LINE
5
101
100
AcDbEntity
8
0
100
AcDbLine
10
67.5
20
-27.308512600840025
30
1.1102230246251565e-15
11
67.5
21
-36.500000000000007
31
0
0
LINE
5
102
100
AcDbEntity
8
0
100
AcDbLine
10
59.5
20
-44.500000000000014
30
0
11
-59.49688996643868
21
-44.500000000000014
31
0
0
ARC
5
103
100
AcDbEntity
8
0
100
AcDbCircle
10
-59.496889966438687
20
-36.496889361919443
30
0
40
8.0031106380805994
210
1.3872392760399548e-16
220
5.3919030237047062e-20
230
1
100
AcDbArc
50
180.02226964565216
51
270.00000000000006
0
ARC
5
104
100
AcDbEntity
8
0
100
AcDbCircle
10
59.5
20
-36.489305155786724
30
0
40
2.5106948442132815
210
0
220
0
230
1
100
AcDbArc
50
-90
51
0.0083930345495609494
0
LINE
5
105
100
AcDbEntity
8
0
100
AcDbLine
10
62.008490251582167
20
-21.439278295672032
30
1.1102230246251565e-15
11
62.010694817275827
21
-36.488937373923193
31
0
0
ARC
5
106
100
AcDbEntity
8
0
100
AcDbCircle
10
-59.390001773721217
20
36.500000000053454
30
0
40
2.6099982262787909
210
0
220
-0
230
1
100
AcDbArc
50
89.94715918287406
51
180
0
LINE
5
107
100
AcDbEntity
8
0
100
AcDbLine
10
-62
20
-36.495889334722833
30
0
11
-62
21
36.5
31
0
0
ARC
5
108
100
AcDbEntity
8
0
100
AcDbCircle
10
-59.534263413575665
20
-36.534263413575552
30
0
40
2.4660351748422675
210
0
220
0
230
1
100
AcDbArc
50
179.10838193778196
51
270.89161806210848
0
LINE
5
109
100
AcDbEntity
8
0
100
AcDbLine
10
59.5
20
-39
30
0
11
-59.495889334727671
21
-38.999999999999957
31
0
0
LINE
5
110
100
AcDbEntity
8
0
100
AcDbLine
10
31.704162889485303
20
37.400713000000003
30
1.1102230246251565e-15
11
31.704162889485303
21
39.500000000000043
31
1.1102230246251565e-15
0
ARC
5
111
100
AcDbEntity
8
0
100
AcDbCircle
10
26.70416288948531
20
39.500000000000043
30
1.1102230246251565e-15
40
4.9999999999999911
210
-0
220
0
230
1
100
AcDbArc
50
0
51
90.000000000000099
0
LINE
5
112
100
AcDbEntity
8
0
100
AcDbLine
10
26.704162889485303
20
44.500000000000036
30
1.1102230246251565e-15
11
-59.500000000000028
21
44.499999999999972
31
1.1102230246251565e-15
0
LINE
5
113
100
AcDbEntity
8
0
100
AcDbLine
10
-67.5
20
36.5
30
0
11
-67.499999999999986
21
-36.5
31
1.1102230246251565e-15
0
ARC
5
114
100
AcDbEntity
8
0
100
AcDbCircle
10
59.499614822560687
20
-36.499614822560751
30
1.1102230246251565e-15
40
8.0003851867114193
210
6.6811200787664413e-21
220
-1.3877119631471252e-16
230
1
100
AcDbArc
50
270.00275849738853
51
359.99724150266695
0
ARC
5
115
100
AcDbEntity
8
0
100
AcDbCircle
10
62.499999999999943
20
-27.308512600840047
30
1.1102230246251565e-15
40
5.0000000000000533
210
0
220
-0
230
1
100
AcDbArc
50
0
51
61.854645691971719
0
ARC
5
116
100
AcDbEntity
8
0
100
AcDbCircle
10
22.145317610224609
20
-102.74234191942769
30
1.1102230246251565e-15
40
90.549769119767149
210
0
220
-0
230
1
100
AcDbArc
50
61.854645691972202
51
63.881127479888704
0
LINE
5
117
100
AcDbEntity
8
0
100
AcDbLine
10
-59.387594713016298
20
39.109997116380825
30
0
11
-24.205486971884355
21
39.077550540662401
31
-5.7443889876049149e-08
0
SPLINE
5
118
100
AcDbEntity
8
0
100
AcDbSpline
70
4
71
5
72
21
73
15
74
0
42
0.000000001
43
0.0000000001
44
0.0000000001
40
0
40
0
40
0
40
0
40
0
40
0
40
0.10000000000000001
40
0.20000000000000001
40
0.30000000000000004
40
0.40000000000000002
40
0.5
40
0.59999999999999998
40
0.69999999999999996
40
0.79999999999999993
40
0.89999999999999991
40
1
40
1
40
1
40
1
40
1
40
1
41
1
41
1
41
1
41
1
41
1
41
1
41
1
41
1
41
1
41
1
41
1
41
1
41
1
41
1
41
1
10
31.704162889485303
20
37.400713000000003
30
1.1102230246251565e-15
10
30.228719688068416
20
37.501535733412041
30
2.6729113200321295e-09
10
27.310383033412066
20
37.699031959516319
30
7.5768408775510059e-09
10
23.030521787020831
20
37.982829009227665
30
1.3607150160085533e-08
10
17.522588244043305
20
38.335917393631256
30
1.8952006032877847e-08
10
10.990608590559315
20
38.730973796079361
30
2.0903768246641451e-08
10
4.8422343934251879
20
39.071847199978585
30
1.7897563171548976e-08
10
-0.89369715693067486
20
39.346675037476921
30
9.9289789875114478e-09
10
-6.2029121570170718
20
39.539819706763225
30
-2.5424197514919806e-09
10
-11.110516876051076
20
39.63285614854292
30
-1.8153299367425125e-08
10
-15.694491382864427
20
39.606077176751185
30
-3.4443215481689014e-08
10
-19.174675305024277
20
39.473173539635084
30
-4.5869820850982869e-08
10
-21.713762334026192
20
39.303498991239692
30
-5.2523002195632278e-08
10
-23.379421769398007
20
39.15822634083586
30
-5.5968605375406669e-08
10
-24.205486971884355
20
39.077550540662401
30
-5.7443889876049149e-08
0
CIRCLE
5
119
100
AcDbEntity
8
0
100
AcDbCircle
10
33.749999999999758
20
-41.500000286847367
30
0
40
1.1499999999999999
210
0
220
-0
230
1
0
CIRCLE
5
120
100
AcDbEntity
8
0
100
AcDbCircle
10
-64.49999931268394
20
-3.5855918234517503e-07
30
0
40
1.1499999999999999
210
0
220
-0
230
1
0
CIRCLE
5
121
100
AcDbEntity
8
0
100
AcDbCircle
10
-33.750000000000128
20
-41.500000286847353
30
0
40
1.1499999999999999
210
0
220
-0
230
1
0
CIRCLE
5
122
100
AcDbEntity
8
0
100
AcDbCircle
10
-33.749999999999993
20
41.499999569728978
30
0
40
1.1499999999999999
210
0
220
-0
230
1
0
ENDSEC
0
SECTION
2
OBJECTS
0
DICTIONARY
5
C
100
AcDbDictionary
3
ACAD_GROUP
350
D
3
ACAD_MLINESTYLE
350
17
0
DICTIONARY
5
D
100
AcDbDictionary
0
DICTIONARY
5
1A
330
C
100
AcDbDictionary
0
DICTIONARY
5
17
100
AcDbDictionary
0
ENDSEC
0
EOF
