0
SECTION
2
HEADER
9
$INSUNITS
70
4
9
$ACADVER
1
AC1014
9
$HANDSEED
5
FFFF
0
ENDSEC
0
SECTION
2
TABLES
0
TABLE
2
VPORT
5
8
100
AcDbSymbolTable
0
ENDTAB
0
TABLE
2
LTYPE
5
5
100
AcDbSymbolTable
0
LTYPE
5
14
100
AcDbSymbolTableRecord
100
AcDbLinetypeTableRecord
2
BYBLOCK
70
0
0
LTYPE
5
15
100
AcDbSymbolTableRecord
100
AcDbLinetypeTableRecord
2
BYLAYER
70
0
0
ENDTAB
0
TABLE
2
LAYER
5
2
100
AcDbSymbolTable
70
2
0
LAYER
5
50
100
AcDbSymbolTableRecord
100
AcDbLayerTableRecord
2
0
70
0
6
CONTINUOUS
0
ENDTAB
0
TABLE
2
STYLE
5
3
100
AcDbSymbolTable
70
1
0
STYLE
5
11
100
AcDbSymbolTableRecord
100
AcDbTextStyleTableRecord
2
STANDARD
70
0
0
ENDTAB
0
TABLE
2
VIEW
5
6
100
AcDbSymbolTable
70
0
0
ENDTAB
0
TABLE
2
UCS
5
7
100
AcDbSymbolTable
70
0
0
ENDTAB
0
TABLE
2
APPID
5
9
100
AcDbSymbolTable
70
2
0
APPID
5
12
100
AcDbSymbolTableRecord
100
AcDbRegAppTableRecord
2
ACAD
70
0
0
ENDTAB
0
TABLE
2
DIMSTYLE
5
A
100
AcDbSymbolTable
70
1
0
ENDTAB
0
TABLE
2
BLOCK_RECORD
5
1
100
AcDbSymbolTable
70
1
0
BLOCK_RECORD
5
1F
100
AcDbSymbolTableRecord
100
AcDbBlockTableRecord
2
*MODEL_SPACE
0
BLOCK_RECORD
5
1B
100
AcDbSymbolTableRecord
100
AcDbBlockTableRecord
2
*PAPER_SPACE
0
ENDTAB
0
ENDSEC
0
SECTION
2
BLOCKS
0
BLOCK
5
20
100
AcDbEntity
100
AcDbBlockBegin
2
*MODEL_SPACE
0
ENDBLK
5
21
100
AcDbEntity
100
AcDbBlockEnd
0
BLOCK
5
1C
100
AcDbEntity
100
AcDbBlockBegin
2
*PAPER_SPACE
0
ENDBLK
5
1D
100
AcDbEntity
100
AcDbBlockEnd
0
ENDSEC
0
SECTION
2
ENTITIES
0
LINE
5
100
100
AcDbEntity
8
0
100
AcDbLine
10
-67.500000000000014
20
36.5
30
9.0000000000000018
11
-67.499999999999986
21
-36.5
31
9.0000000000000018
0
ARC
5
101
100
AcDbEntity
8
0
100
AcDbCircle
10
-59.5
20
-36.5
30
9.0000000000000018
40
7.9999999999999893
210
0
220
0
230
1
100
AcDbArc
50
180
51
270
0
LINE
5
102
100
AcDbEntity
8
0
100
AcDbLine
10
-59.5
20
-44.5
30
9.0000000000000018
11
59.5
21
-44.500000000000014
31
9.0000000000000018
0
ARC
5
103
100
AcDbEntity
8
0
100
AcDbCircle
10
59.5
20
-36.5
30
9.0000000000000018
40
8.0000000000000071
210
-0
220
0
230
1
100
AcDbArc
50
270
51
360
0
LINE
5
104
100
AcDbEntity
8
0
100
AcDbLine
10
67.500000000000014
20
-36.500000000000007
30
9.0000000000000018
11
67.5
21
-27.308512600840025
31
9.0000000000000018
0
ARC
5
105
100
AcDbEntity
8
0
100
AcDbCircle
10
62.499999999999943
20
-27.308512600840047
30
9.0000000000000018
40
5.0000000000000533
210
0
220
-0
230
1
100
AcDbArc
50
0
51
61.854645691971719
0
ARC
5
106
100
AcDbEntity
8
0
100
AcDbCircle
10
22.145317610224609
20
-102.74234191942769
30
9.0000000000000018
40
90.549769119767149
210
0
220
-0
230
1
100
AcDbArc
50
61.854645691972202
51
64.306728446087448
0
ARC
5
107
100
AcDbEntity
8
0
100
AcDbCircle
10
-59.500000000000028
20
36.5
30
9.0000000000000018
40
7.9999999999999716
210
0
220
-0
230
1
100
AcDbArc
50
90
51
180
0
LINE
5
108
100
AcDbEntity
8
0
100
AcDbLine
10
26.704162889485303
20
44.500000000000036
30
9.0000000000000018
11
-59.500000000000028
21
44.499999999999972
31
9.0000000000000018
0
ARC
5
109
100
AcDbEntity
8
0
100
AcDbCircle
10
26.70416288948531
20
39.500000000000043
30
9.0000000000000018
40
4.9999999999999911
210
-0
220
0
230
1
100
AcDbArc
50
0
51
90.000000000000099
0
LINE
5
110
100
AcDbEntity
8
0
100
AcDbLine
10
31.704162889485303
20
37.400713000000003
30
9.0000000000000018
11
31.704162889485303
21
39.500000000000043
31
9.0000000000000018
0
SPLINE
5
111
100
AcDbEntity
8
0
100
AcDbSpline
70
4
71
5
72
161
73
155
74
0
42
0.000000001
43
0.0000000001
44
0.0000000001
40
0
40
0
40
0
40
0
40
0
40
0
40
0.0066666666666666671
40
0.013333333333333334
40
0.02
40
0.026666666666666668
40
0.033333333333333333
40
0.040000000000000001
40
0.046666666666666669
40
0.053333333333333337
40
0.060000000000000005
40
0.066666666666666666
40
0.073333333333333334
40
0.080000000000000002
40
0.08666666666666667
40
0.093333333333333338
40
0.10000000000000001
40
0.10666666666666667
40
0.11333333333333334
40
0.12000000000000001
40
0.12666666666666668
40
0.13333333333333333
40
0.13999999999999999
40
0.14666666666666664
40
0.15333333333333329
40
0.15999999999999995
40
0.1666666666666666
40
0.17333333333333326
40
0.17999999999999991
40
0.18666666666666656
40
0.19333333333333322
40
0.19999999999999987
40
0.20666666666666653
40
0.21333333333333318
40
0.21999999999999983
40
0.22666666666666649
40
0.23333333333333314
40
0.2399999999999998
40
0.24666666666666645
40
0.25333333333333313
40
0.25999999999999979
40
0.26666666666666644
40
0.2733333333333331
40
0.27999999999999975
40
0.2866666666666664
40
0.29333333333333306
40
0.29999999999999971
40
0.30666666666666637
40
0.31333333333333302
40
0.31999999999999967
40
0.32666666666666633
40
0.33333333333333298
40
0.33999999999999964
40
0.34666666666666629
40
0.35333333333333294
40
0.3599999999999996
40
0.36666666666666625
40
0.37333333333333291
40
0.37999999999999956
40
0.38666666666666621
40
0.39333333333333287
40
0.39999999999999952
40
0.40666666666666618
40
0.41333333333333283
40
0.41999999999999948
40
0.42666666666666614
40
0.43333333333333279
40
0.43999999999999945
40
0.4466666666666661
40
0.45333333333333276
40
0.45999999999999941
40
0.46666666666666606
40
0.47333333333333272
40
0.47999999999999937
40
0.48666666666666603
40
0.49333333333333268
40
0.49999999999999933
40
0.50666666666666604
40
0.51333333333333275
40
0.51999999999999946
40
0.52666666666666617
40
0.53333333333333288
40
0.53999999999999959
40
0.5466666666666663
40
0.55333333333333301
40
0.55999999999999972
40
0.56666666666666643
40
0.57333333333333314
40
0.57999999999999985
40
0.58666666666666656
40
0.59333333333333327
40
0.59999999999999998
40
0.60666666666666669
40
0.6133333333333334
40
0.62000000000000011
40
0.62666666666666682
40
0.63333333333333353
40
0.64000000000000024
40
0.64666666666666694
40
0.65333333333333365
40
0.66000000000000036
40
0.66666666666666707
40
0.67333333333333378
40
0.68000000000000049
40
0.6866666666666672
40
0.69333333333333391
40
0.70000000000000062
40
0.70666666666666733
40
0.71333333333333404
40
0.72000000000000075
40
0.72666666666666746
40
0.73333333333333417
40
0.74000000000000088
40
0.74666666666666759
40
0.7533333333333343
40
0.76000000000000101
40
0.76666666666666772
40
0.77333333333333443
40
0.78000000000000114
40
0.78666666666666785
40
0.79333333333333456
40
0.80000000000000127
40
0.80666666666666798
40
0.81333333333333468
40
0.82000000000000139
40
0.8266666666666681
40
0.83333333333333481
40
0.84000000000000152
40
0.84666666666666823
40
0.85333333333333494
40
0.86000000000000165
40
0.86666666666666836
40
0.87333333333333507
40
0.88000000000000178
40
0.88666666666666849
40
0.8933333333333352
40
0.90000000000000191
40
0.90666666666666862
40
0.91333333333333533
40
0.92000000000000204
40
0.92666666666666875
40
0.93333333333333546
40
0.94000000000000217
40
0.94666666666666888
40
0.95333333333333559
40
0.9600000000000023
40
0.96666666666666901
40
0.97333333333333572
40
0.98000000000000242
40
0.98666666666666913
40
0.99333333333333584
40
1
40
1
40
1
40
1
40
1
40
1
41
1
41
1
41
1
41
1
41
1
41
1
41
1
41
1
41
1
41
1
41
1
41
1
41
1
41
1
41
1
41
1
41
1
41
1
41
1
41
1
41
1
41
1
41
1
41
1
41
1
41
1
41
1
41
1
41
1
41
1
41
1
41
1
41
1
41
1
41
1
41
1
41
1
41
1
41
1
41
1
41
1
41
1
41
1
41
1
41
1
41
1
41
1
41
1
41
1
41
1
41
1
41
1
41
1
41
1
41
1
41
1
41
1
41
1
41
1
41
1
41
1
41
1
41
1
41
1
41
1
41
1
41
1
41
1
41
1
41
1
41
1
41
1
41
1
41
1
41
1
41
1
41
1
41
1
41
1
41
1
41
1
41
1
41
1
41
1
41
1
41
1
41
1
41
1
41
1
41
1
41
1
41
1
41
1
41
1
41
1
41
1
41
1
41
1
41
1
41
1
41
1
41
1
41
1
41
1
41
1
41
1
41
1
41
1
41
1
41
1
41
1
41
1
41
1
41
1
41
1
41
1
41
1
41
1
41
1
41
1
41
1
41
1
41
1
41
1
41
1
41
1
41
1
41
1
41
1
41
1
41
1
41
1
41
1
41
1
41
1
41
1
41
1
41
1
41
1
41
1
41
1
41
1
41
1
41
1
41
1
41
1
41
1
41
1
41
1
41
1
41
1
41
1
41
1
41
1
41
1
10
31.704162889485303
20
37.400713000000003
30
9.0000000000000018
10
31.342532422965114
20
37.425657304099992
30
9.0000000042799364
10
30.583633579137711
20
37.477896633131841
30
9.000000012390279
10
29.338371572882544
20
37.563307792657724
30
9.0000000232072317
10
27.464179351173208
20
37.691294661129447
30
9.0000000349325351
10
24.766484541247262
20
37.874307143971365
30
9.0000000451131843
10
21.718342427984005
20
38.078897726739072
30
9.0000000508777891
10
18.328882326424658
20
38.302157821601732
30
9.0000000523475769
10
14.613430316277897
20
38.539230168818236
30
9.0000000497259709
10
10.595065861394517
20
38.782825798371704
30
9.0000000433192913
10
6.306225378721237
20
39.022721284548616
30
9.0000000335577681
10
1.7902029931902361
20
39.245299886965384
30
9.0000000210154223
10
-2.8971024660890272
20
39.432988486349771
30
9.0000000064338845
10
-7.686007691690758
20
39.563935564786192
30
8.9999999907363666
10
-12.490451017875943
20
39.611089423877466
30
8.999999975066066
10
-17.211276370177284
20
39.543771850790549
30
8.9999999607226115
10
-21.743507143621489
20
39.330948010842754
30
8.9999999490293021
10
-25.982428923985776
20
38.943987228908682
30
8.9999999412207305
10
-29.830172275645054
20
38.359645485159788
30
8.9999999383215989
10
-33.202062078905399
20
37.562928736119815
30
8.9999999410302625
10
-36.033118940631127
20
36.550069234058988
30
8.9999999495978695
10
-38.284389394154545
20
35.331318652424272
30
8.9999999637145685
10
-39.949616292614841
20
33.934144430776847
30
8.999999982380162
10
-41.061169427999296
20
32.405511900396959
30
9.0000000038095997
10
-41.697752338680687
20
30.816347297164008
30
9.0000000252553995
10
-41.986936405901794
20
29.259776927955478
30
9.000000043069166
10
-42.084284896942911
20
27.825337435991955
30
9.0000000537356488
10
-42.156401068171419
20
26.574189414777678
30
9.0000000548246923
10
-42.361197576785834
20
25.518916266222096
30
9.0000000458598102
10
-42.83240438663033
20
24.588785362549686
30
9.0000000295171851
10
-43.645251927929351
20
23.691597338408798
30
9.0000000104299609
10
-44.787421042154293
20
22.785458649386683
30
8.9999999935472736
10
-46.110304626447025
20
21.970594149403105
30
8.9999999824383341
10
-47.348315159560094
20
21.494751497473729
30
8.9999999782969304
10
-48.272207186805446
20
21.5878993636044
30
8.9999999802984512
10
-48.799486826458349
20
22.34586560138268
30
8.9999999857425159
10
-49.15332996189094
20
23.568631359888958
30
8.9999999900576668
10
-49.693854897024892
20
24.876988347201415
30
8.9999999888930375
10
-50.719235602679937
20
25.859988965762781
30
8.9999999802913635
10
-52.2448483337634
20
26.226824652120779
30
8.9999999673483142
10
-53.890994887607704
20
25.911504224424444
30
8.9999999590670168
10
-55.178260021599456
20
25.00629767798964
30
8.9999999643331954
10
-55.726470619346379
20
23.722324303382823
30
8.9999999878000043
10
-55.550440690117568
20
22.34444988956993
30
9.0000000233977548
10
-55.121242890144245
20
21.172537181356034
30
9.0000000541693979
10
-54.999530319002204
20
20.427884143065516
30
9.0000000637175699
10
-55.545902887095153
20
20.162406935819131
30
9.000000045805864
10
-56.633476064898211
20
20.179417334094314
30
9.0000000131950415
10
-57.894877392648169
20
20.154863087262754
30
8.9999999851821162
10
-58.97518218026029
20
19.763414059643441
30
8.9999999737655774
10
-59.652997758245874
20
18.75110869352665
30
8.9999999790470682
10
-59.800264408996938
20
16.945981292427412
30
8.9999999954734182
10
-59.385294921344105
20
14.282903340281392
30
9.0000000149511212
10
-58.459456949374356
20
10.828885117540301
30
9.0000000317532454
10
-57.140895994818777
20
6.7603224279852512
30
9.000000042703709
10
-55.592393976538126
20
2.326681696818234
30
9.0000000465674201
10
-54.001574136372383
20
-2.1809589311784507
30
9.0000000436931984
10
-52.56003739999062
20
-6.4635913882972043
30
9.000000035551178
10
-51.443142054208913
20
-10.246546298728145
30
9.000000024318485
10
-50.78908422136977
20
-13.313425277200784
30
9.0000000124382318
10
-50.679243017231805
20
-15.536891520558058
30
9.0000000022039064
10
-51.115702443077623
20
-16.916511171947548
30
8.9999999953008061
10
-52.005275297101591
20
-17.60029835281475
30
8.999999992441353
10
-53.127118828250239
20
-17.947014168374494
30
8.9999999927669982
10
-54.188088026900814
20
-18.382137636853699
30
8.9999999944720948
10
-54.904196114742511
20
-19.216034150559338
30
8.9999999957417458
10
-55.082713527030982
20
-20.410279953790557
30
8.9999999958034724
10
-54.671839286681596
20
-21.577886823637332
30
8.9999999952077196
10
-53.743722245972961
20
-22.314443921429948
30
8.9999999949082117
10
-52.505242155886506
20
-22.509502282050772
30
8.9999999955109171
10
-51.262081068861235
20
-22.484122351058268
30
8.9999999968236839
10
-50.299680140953114
20
-22.675397103178629
30
8.9999999983465493
10
-49.781166665735938
20
-23.419209914528626
30
8.9999999995540136
10
-49.638081253236955
20
-24.692611139663864
30
9.0000000002616236
10
-49.65794767072677
20
-26.259381462223296
30
9.000000000507244
10
-49.56650884503869
20
-27.799629101761994
30
9.0000000004533511
10
-49.119871165308197
20
-29.062586006203915
30
9.0000000002700595
10
-48.167703205560016
20
-29.956429856083531
30
9.0000000000604636
10
-46.644146742444583
20
-30.481303351606268
30
8.9999999998860876
10
-44.57193909572748
20
-30.692933989941142
30
8.999999999773129
10
-42.062555659012389
20
-30.652407556204402
30
8.9999999997266027
10
-39.314589013719171
20
-30.386792917155041
30
8.9999999997404352
10
-36.573020823182972
20
-29.902810578672316
30
8.999999999800556
10
-34.091498598505375
20
-29.197103656914972
30
8.9999999998880416
10
-32.094553572986477
20
-28.267393422673464
30
8.9999999999822471
10
-30.737333705158459
20
-27.124082577008611
30
9.0000000000639204
10
-30.072226601320938
20
-25.799752583907022
30
9.0000000001180496
10
-29.998092589788932
20
-24.364301130694635
30
9.0000000001373888
10
-30.272230935470233
20
-22.919413835333753
30
9.0000000001235971
10
-30.599136282136673
20
-21.567093116391103
30
9.0000000000856275
10
-30.693267592902554
20
-20.387745025636676
30
9.0000000000386144
10
-30.365992842005255
20
-19.408004008459649
30
9.0000000000033804
10
-29.554265312457538
20
-18.595381042661138
30
9.0000000000026823
10
-28.268926640787964
20
-17.890747288985725
30
9.0000000000520703
10
-26.562043116071138
20
-17.23180446824777
30
9.0000000001521858
10
-24.486411295736794
20
-16.580313631016587
30
9.0000000002804157
10
-22.09736598859741
20
-15.919152765599854
30
9.0000000003993286
10
-19.453379166172052
20
-15.249884648312857
30
9.0000000004654339
10
-16.61721850441457
20
-14.590113067517311
30
9.0000000004376446
10
-13.656806677606287
20
-13.970909611808587
30
9.0000000002858798
10
-10.646348338753731
20
-13.434275310090946
30
8.9999999999998384
10
-7.667023953411646
20
-13.030449118487599
30
8.9999999995967865
10
-4.8086403527835158
20
-12.81562560673744
30
8.999999999132072
10
-2.1684914089385745
20
-12.848444187380117
30
8.999999998701437
10
0.15957550994379469
20
-13.182156134099909
30
8.9999999984136796
10
2.0945476669673528
20
-13.857456879194128
30
8.9999999983682031
10
3.5781934980490266
20
-14.895110943768417
30
8.9999999986307717
10
4.5848940845049171
20
-16.288529472181331
30
8.9999999992094786
10
5.1312579237675493
20
-17.996667167890262
30
9.0000000000319336
10
5.2865951338941368
20
-19.935939991063059
30
9.0000000009182521
10
5.1624704774456331
20
-21.994115300941729
30
9.0000000016435635
10
4.9010819731397683
20
-24.045126564674604
30
9.0000000020024054
10
4.6643280256571664
20
-25.963870089378062
30
9.0000000018768826
10
4.6220245229300794
20
-27.640274165808741
30
9.0000000012934613
10
4.9418642507736115
20
-28.995457696018548
30
9.0000000005082708
10
5.7738988241578806
20
-29.991071414558107
30
9.0000000000006981
10
7.2225820854537623
20
-30.625057485998695
30
9.0000000002746656
10
9.323114581368479
20
-30.93004377099669
30
9.0000000017087274
10
12.012399182793551
20
-30.971264784884301
30
9.000000004369058
10
15.113105205884521
20
-30.843004329599903
30
9.0000000078905789
10
18.3810634761697
20
-30.654902706933996
30
9.0000000116637615
10
21.544009949385444
20
-30.519728821527327
30
9.0000000149799106
10
24.344528349325163
20
-30.540432472896811
30
9.0000000171972214
10
26.579256161815515
20
-30.797841487471885
30
9.0000000178870465
10
28.144231484453872
20
-31.337287341574601
30
9.0000000170142744
10
29.06704143500297
20
-32.157527289208176
30
9.0000000150432218
10
29.571240005253593
20
-33.194044378140795
30
9.0000000132261739
10
30.005930159858593
20
-34.325544714259209
30
9.0000000131288349
10
30.682712442831498
20
-35.395388805166711
30
9.0000000156339937
10
31.743282573388267
20
-36.229612490663961
30
9.0000000201137418
10
33.00706503358667
20
-36.654005209228579
30
9.0000000234990694
10
34.174983610517288
20
-36.555755555284676
30
9.0000000216470522
10
35.007562831072022
20
-35.932846896996423
30
9.0000000106419442
10
35.570422605958861
20
-34.9755099193939
30
8.999999988289364
10
36.189488021718482
20
-34.010241460914948
30
8.9999999547332141
10
37.242765659961321
20
-33.369234014527635
30
8.9999999124556282
10
38.979428480056313
20
-33.267193857754627
30
8.9999998666000653
10
41.39537968500165
20
-33.721445147309616
30
8.9999998247504731
10
44.324542637489785
20
-34.617566880675845
30
8.9999997954842357
10
47.487147972843303
20
-35.746473723414184
30
8.9999997871552271
10
50.555609904831307
20
-36.853157760241245
30
8.9999998065712354
10
53.211840056316795
20
-37.679717271656223
30
8.9999998577503693
10
55.210627002120418
20
-38.012495118302475
30
8.9999999405631055
10
56.434814111996026
20
-37.723560964929568
30
9.0000000496096941
10
56.968704300016604
20
-36.824844714643859
30
9.0000001725060947
10
57.033847549164179
20
-35.42631747514011
30
9.0000002926842821
10
56.906239215129382
20
-33.680902789972166
30
9.0000003927374053
10
56.827546110068909
20
-31.72591990256818
30
9.0000004581173236
10
56.963440786103902
20
-29.654979834355313
30
9.0000004787420451
10
57.426837270565002
20
-27.532149490214998
30
9.0000004477931768
10
58.284368210866049
20
-25.39519006179917
30
9.0000003612364381
10
59.312617261212679
20
-23.689631768956133
30
9.0000002458860529
10
60.281253952580592
20
-22.415543275597642
30
9.0000001331431054
10
61.014769165946454
20
-21.568414045008694
30
9.0000000463238976
10
61.403465651224053
20
-21.14541489374794
30
9.0000000000000018
0
CIRCLE
5
112
100
AcDbEntity
8
0
100
AcDbCircle
10
-33.750000000000128
20
41.500000286847353
30
-1.9999999999999996
40
1.1499999999999977
210
0
220
-0
230
1
0
CIRCLE
5
113
100
AcDbEntity
8
0
100
AcDbCircle
10
-64.49999931268394
20
3.5855918234517503e-07
30
-1.9999999999999996
40
1.1500000000000021
210
0
220
-0
230
1
0
CIRCLE
5
114
100
AcDbEntity
8
0
100
AcDbCircle
10
-33.749999999999993
20
-41.499999569728978
30
-1.9999999999999996
40
1.1500000000000021
210
0
220
-0
230
1
0
CIRCLE
5
115
100
AcDbEntity
8
0
100
AcDbCircle
10
33.75
20
-41.499999569728978
30
-1.9999999999999996
40
1.1500000000000021
210
0
220
-0
230
1
0
ENDSEC
0
SECTION
2
OBJECTS
0
DICTIONARY
5
C
100
AcDbDictionary
3
ACAD_GROUP
350
D
3
ACAD_MLINESTYLE
350
17
0
DICTIONARY
5
D
100
AcDbDictionary
0
DICTIONARY
5
1A
330
C
100
AcDbDictionary
0
DICTIONARY
5
17
100
AcDbDictionary
0
ENDSEC
0
EOF
