0
SECTION
2
HEADER
9
$INSUNITS
70
4
9
$ACADVER
1
AC1014
9
$HANDSEED
5
FFFF
0
ENDSEC
0
SECTION
2
TABLES
0
TABLE
2
VPORT
5
8
100
AcDbSymbolTable
0
ENDTAB
0
TABLE
2
LTYPE
5
5
100
AcDbSymbolTable
0
LTYPE
5
14
100
AcDbSymbolTableRecord
100
AcDbLinetypeTableRecord
2
BYBLOCK
70
0
0
LTYPE
5
15
100
AcDbSymbolTableRecord
100
AcDbLinetypeTableRecord
2
BYLAYER
70
0
0
ENDTAB
0
TABLE
2
LAYER
5
2
100
AcDbSymbolTable
70
2
0
LAYER
5
50
100
AcDbSymbolTableRecord
100
AcDbLayerTableRecord
2
0
70
0
6
CONTINUOUS
0
ENDTAB
0
TABLE
2
STYLE
5
3
100
AcDbSymbolTable
70
1
0
STYLE
5
11
100
AcDbSymbolTableRecord
100
AcDbTextStyleTableRecord
2
STANDARD
70
0
0
ENDTAB
0
TABLE
2
VIEW
5
6
100
AcDbSymbolTable
70
0
0
ENDTAB
0
TABLE
2
UCS
5
7
100
AcDbSymbolTable
70
0
0
ENDTAB
0
TABLE
2
APPID
5
9
100
AcDbSymbolTable
70
2
0
APPID
5
12
100
AcDbSymbolTableRecord
100
AcDbRegAppTableRecord
2
ACAD
70
0
0
ENDTAB
0
TABLE
2
DIMSTYLE
5
A
100
AcDbSymbolTable
70
1
0
ENDTAB
0
TABLE
2
BLOCK_RECORD
5
1
100
AcDbSymbolTable
70
1
0
BLOCK_RECORD
5
1F
100
AcDbSymbolTableRecord
100
AcDbBlockTableRecord
2
*MODEL_SPACE
0
BLOCK_RECORD
5
1B
100
AcDbSymbolTableRecord
100
AcDbBlockTableRecord
2
*PAPER_SPACE
0
ENDTAB
0
ENDSEC
0
SECTION
2
BLOCKS
0
BLOCK
5
20
100
AcDbEntity
100
AcDbBlockBegin
2
*MODEL_SPACE
0
ENDBLK
5
21
100
AcDbEntity
100
AcDbBlockEnd
0
BLOCK
5
1C
100
AcDbEntity
100
AcDbBlockBegin
2
*PAPER_SPACE
0
ENDBLK
5
1D
100
AcDbEntity
100
AcDbBlockEnd
0
ENDSEC
0
SECTION
2
ENTITIES
0
CIRCLE
5
100
100
AcDbEntity
8
0
100
AcDbCircle
10
-33.749999999999993
20
-41.499999569728978
30
5.6000000000000005
40
1.1500000000000021
210
0
220
-0
230
1
0
CIRCLE
5
101
100
AcDbEntity
8
0
100
AcDbCircle
10
-33.750000000000128
20
41.500000286847353
30
5.6000000000000005
40
1.1499999999999977
210
0
220
-0
230
1
0
CIRCLE
5
102
100
AcDbEntity
8
0
100
AcDbCircle
10
33.75
20
-41.499999569728978
30
5.6000000000000005
40
1.1500000000000021
210
0
220
-0
230
1
0
CIRCLE
5
103
100
AcDbEntity
8
0
100
AcDbCircle
10
-64.49999931268394
20
3.5855918234517503e-07
30
5.6000000000000005
40
1.1500000000000021
210
0
220
-0
230
1
0
ARC
5
104
100
AcDbEntity
8
0
100
AcDbCircle
10
59.5
20
-36.5
30
5.6000000000000005
40
8.0000000000000071
210
-0
220
0
230
1
100
AcDbArc
50
270
51
360
0
LINE
5
105
100
AcDbEntity
8
0
100
AcDbLine
10
67.500000000000014
20
-36.500000000000007
30
5.6000000000000005
11
67.5
21
-27.308512600840025
31
5.6000000000000005
0
ARC
5
106
100
AcDbEntity
8
0
100
AcDbCircle
10
62.499999999999943
20
-27.308512600840047
30
5.6000000000000005
40
5.0000000000000533
210
0
220
-0
230
1
100
AcDbArc
50
0
51
61.854645691971719
0
ARC
5
107
100
AcDbEntity
8
0
100
AcDbCircle
10
22.145317610224609
20
-102.74234191942769
30
5.6000000000000005
40
90.549769119767149
210
0
220
-0
230
1
100
AcDbArc
50
61.854645691972202
51
83.940306556733859
0
LINE
5
108
100
AcDbEntity
8
0
100
AcDbLine
10
31.704162889485374
20
-12.698523894144625
30
5.6000000000000005
11
31.704162889485303
21
39.500000000000036
31
5.6000000000000005
0
ARC
5
109
100
AcDbEntity
8
0
100
AcDbCircle
10
26.70416288948531
20
39.500000000000043
30
5.6000000000000005
40
4.9999999999999911
210
-0
220
0
230
1
100
AcDbArc
50
0
51
90.000000000000099
0
LINE
5
110
100
AcDbEntity
8
0
100
AcDbLine
10
26.704162889485303
20
44.500000000000036
30
5.6000000000000005
11
-59.500000000000028
21
44.499999999999986
31
5.6000000000000005
0
ARC
5
111
100
AcDbEntity
8
0
100
AcDbCircle
10
-59.500000000000028
20
36.5
30
5.6000000000000005
40
7.9999999999999805
210
0
220
-0
230
1
100
AcDbArc
50
90
51
180
0
LINE
5
112
100
AcDbEntity
8
0
100
AcDbLine
10
-67.500000000000014
20
36.5
30
5.6000000000000005
11
-67.5
21
-36.5
31
5.6000000000000005
0
ARC
5
113
100
AcDbEntity
8
0
100
AcDbCircle
10
-59.5
20
-36.5
30
5.6000000000000005
40
7.9999999999999982
210
0
220
0
230
1
100
AcDbArc
50
180
51
270
0
LINE
5
114
100
AcDbEntity
8
0
100
AcDbLine
10
-59.5
20
-44.5
30
5.6000000000000005
11
59.5
21
-44.500000000000014
31
5.6000000000000005
0
CIRCLE
5
115
100
AcDbEntity
8
0
100
AcDbCircle
10
-51.70000000000001
20
-20.300000000000004
30
5.6000000000000005
40
1.1500000000000021
210
0
220
-0
230
1
0
CIRCLE
5
116
100
AcDbEntity
8
0
100
AcDbCircle
10
-52.600000000000009
20
22.699999999999999
30
5.6000000000000005
40
1.1500000000000021
210
0
220
-0
230
1
0
CIRCLE
5
117
100
AcDbEntity
8
0
100
AcDbCircle
10
33
20
-33.799999999999997
30
5.6000000000000005
40
1.1499999999999977
210
0
220
-0
230
1
0
LINE
5
118
100
AcDbEntity
8
0
100
AcDbLine
10
53.338985947994999
20
-35.351704110390003
30
5.6000000000000005
11
40.101725889605
21
-30.793749947990001
31
5.6000000000000005
0
LINE
5
119
100
AcDbEntity
8
0
100
AcDbLine
10
40.101725889605
20
-30.793749947990001
30
5.6000000000000005
11
44.659680052005008
21
-17.556489889600002
31
5.6000000000000005
0
LINE
5
120
100
AcDbEntity
8
0
100
AcDbLine
10
44.659680052005008
20
-17.556489889600002
30
5.6000000000000005
11
57.896940110395008
21
-22.114444052
31
5.6000000000000005
0
LINE
5
121
100
AcDbEntity
8
0
100
AcDbLine
10
57.896940110395008
20
-22.114444052
30
5.6000000000000005
11
53.338985947994999
21
-35.351704110390003
31
5.6000000000000005
0
LINE
5
122
100
AcDbEntity
8
0
100
AcDbLine
10
40.044009639447999
20
-16.375761871110001
30
5.6000000000000005
11
37.85392712888401
21
-30.203398639440003
31
5.6000000000000005
0
LINE
5
123
100
AcDbEntity
8
0
100
AcDbLine
10
37.85392712888401
20
-30.203398639440003
30
5.6000000000000005
11
24.026290360552004
21
-28.01331612888
31
5.6000000000000005
0
LINE
5
124
100
AcDbEntity
8
0
100
AcDbLine
10
24.026290360552004
20
-28.01331612888
30
5.6000000000000005
11
26.216372871116
21
-14.185679360550001
31
5.6000000000000005
0
LINE
5
125
100
AcDbEntity
8
0
100
AcDbLine
10
26.216372871116
20
-14.185679360550001
30
5.6000000000000005
11
40.044009639447999
21
-16.375761871110001
31
5.6000000000000005
0
LINE
5
126
100
AcDbEntity
8
0
100
AcDbLine
10
7.7672540000000012
20
-27.787018000000003
30
5.6000000000000005
11
7.7672540000000012
21
-13.787018
31
5.6000000000000005
0
LINE
5
127
100
AcDbEntity
8
0
100
AcDbLine
10
7.7672540000000012
20
-13.787018
30
5.6000000000000005
11
21.767254000000001
21
-13.787018
31
5.6000000000000005
0
LINE
5
128
100
AcDbEntity
8
0
100
AcDbLine
10
21.767254000000001
20
-13.787018
30
5.6000000000000005
11
21.767254000000001
21
-27.787018000000003
31
5.6000000000000005
0
LINE
5
129
100
AcDbEntity
8
0
100
AcDbLine
10
21.767254000000001
20
-27.787018000000003
30
5.6000000000000005
11
7.7672540000000012
21
-27.787018000000003
31
5.6000000000000005
0
LINE
5
130
100
AcDbEntity
8
0
100
AcDbLine
10
29.852605000000004
20
2.400713000000001
30
5.6000000000000005
11
29.852605000000004
21
-11.599287
31
5.6000000000000005
0
LINE
5
131
100
AcDbEntity
8
0
100
AcDbLine
10
29.852605000000004
20
-11.599287
30
5.6000000000000005
11
15.852605000000002
21
-11.599287
31
5.6000000000000005
0
LINE
5
132
100
AcDbEntity
8
0
100
AcDbLine
10
15.852605000000002
20
-11.599287
30
5.6000000000000005
11
15.852605000000002
21
2.400713000000001
31
5.6000000000000005
0
LINE
5
133
100
AcDbEntity
8
0
100
AcDbLine
10
15.852605000000002
20
2.400713000000001
30
5.6000000000000005
11
29.852605000000004
21
2.400713000000001
31
5.6000000000000005
0
LINE
5
134
100
AcDbEntity
8
0
100
AcDbLine
10
13.852603000000002
20
-10.599288
30
5.6000000000000005
11
-0.14739700000000022
21
-10.599287999999998
31
5.6000000000000005
0
LINE
5
135
100
AcDbEntity
8
0
100
AcDbLine
10
-0.14739700000000022
20
-10.599287999999998
30
5.6000000000000005
11
-0.14739700000000022
21
3.4007120000000013
31
5.6000000000000005
0
LINE
5
136
100
AcDbEntity
8
0
100
AcDbLine
10
-0.14739700000000022
20
3.4007120000000013
30
5.6000000000000005
11
13.852603000000002
21
3.4007119999999991
31
5.6000000000000005
0
LINE
5
137
100
AcDbEntity
8
0
100
AcDbLine
10
13.852603000000002
20
3.4007119999999991
30
5.6000000000000005
11
13.852603000000002
21
-10.599288
31
5.6000000000000005
0
LINE
5
138
100
AcDbEntity
8
0
100
AcDbLine
10
-32.758427166090001
20
-24.485764073089999
30
5.6000000000000005
11
-46.399608073090008
21
-27.6350788339
31
5.6000000000000005
0
LINE
5
139
100
AcDbEntity
8
0
100
AcDbLine
10
-46.399608073090008
20
-27.6350788339
30
5.6000000000000005
11
-49.548922833900008
21
-13.993897926910002
31
5.6000000000000005
0
LINE
5
140
100
AcDbEntity
8
0
100
AcDbLine
10
-49.548922833900008
20
-13.993897926910002
30
5.6000000000000005
11
-35.907741926909999
21
-10.844583166090001
31
5.6000000000000005
0
LINE
5
141
100
AcDbEntity
8
0
100
AcDbLine
10
-35.907741926909999
20
-10.844583166090001
30
5.6000000000000005
11
-32.758427166090001
21
-24.485764073089999
31
5.6000000000000005
0
LINE
5
142
100
AcDbEntity
8
0
100
AcDbLine
10
-16.6258430247
20
-11.030866510450002
30
5.6000000000000005
11
-18.089241510450002
21
2.8924400247039994
31
5.6000000000000005
0
LINE
5
143
100
AcDbEntity
8
0
100
AcDbLine
10
-18.089241510450002
20
2.8924400247039994
30
5.6000000000000005
11
-4.1659349752959995
21
4.3558385104510009
31
5.6000000000000005
0
LINE
5
144
100
AcDbEntity
8
0
100
AcDbLine
10
-4.1659349752959995
20
4.3558385104510009
30
5.6000000000000005
11
-2.7025364895489989
21
-9.5674680247040005
31
5.6000000000000005
0
LINE
5
145
100
AcDbEntity
8
0
100
AcDbLine
10
-2.7025364895489989
20
-9.5674680247040005
30
5.6000000000000005
11
-16.6258430247
21
-11.030866510450002
31
5.6000000000000005
0
LINE
5
146
100
AcDbEntity
8
0
100
AcDbLine
10
-34.72770963944
20
-1.808049871116
30
5.6000000000000005
11
-20.900072871110002
21
0.38203263944800003
31
5.6000000000000005
0
LINE
5
147
100
AcDbEntity
8
0
100
AcDbLine
10
-20.900072871110002
20
0.38203263944800003
30
5.6000000000000005
11
-18.709990360550002
21
-13.445604128879999
31
5.6000000000000005
0
LINE
5
148
100
AcDbEntity
8
0
100
AcDbLine
10
-18.709990360550002
20
-13.445604128879999
30
5.6000000000000005
11
-32.537627128879997
21
-15.635686639440001
31
5.6000000000000005
0
LINE
5
149
100
AcDbEntity
8
0
100
AcDbLine
10
-32.537627128879997
20
-15.635686639440001
30
5.6000000000000005
11
-34.72770963944
21
-1.808049871116
31
5.6000000000000005
0
LINE
5
150
100
AcDbEntity
8
0
100
AcDbLine
10
-39.506960926909997
20
4.7453428339039991
30
5.6000000000000005
11
-36.357646166090007
21
-8.8958380730899993
31
5.6000000000000005
0
LINE
5
151
100
AcDbEntity
8
0
100
AcDbLine
10
-36.357646166090007
20
-8.8958380730899993
30
5.6000000000000005
11
-49.998827073089998
21
-12.045152833900001
31
5.6000000000000005
0
LINE
5
152
100
AcDbEntity
8
0
100
AcDbLine
10
-49.998827073089998
20
-12.045152833900001
30
5.6000000000000005
11
-53.148141833899999
21
1.5960280730900012
31
5.6000000000000005
0
LINE
5
153
100
AcDbEntity
8
0
100
AcDbLine
10
-53.148141833899999
20
1.5960280730900012
30
5.6000000000000005
11
-39.506960926909997
21
4.7453428339039991
31
5.6000000000000005
0
LINE
5
154
100
AcDbEntity
8
0
100
AcDbLine
10
15.852605000000002
20
18.400714000000001
30
5.6000000000000005
11
29.852605000000004
21
18.400714000000001
31
5.6000000000000005
0
LINE
5
155
100
AcDbEntity
8
0
100
AcDbLine
10
29.852605000000004
20
18.400714000000001
30
5.6000000000000005
11
29.852605000000004
21
4.4007139999999989
31
5.6000000000000005
0
LINE
5
156
100
AcDbEntity
8
0
100
AcDbLine
10
29.852605000000004
20
4.4007139999999989
30
5.6000000000000005
11
15.852605000000002
21
4.4007139999999989
31
5.6000000000000005
0
LINE
5
157
100
AcDbEntity
8
0
100
AcDbLine
10
15.852605000000002
20
4.4007139999999989
30
5.6000000000000005
11
15.852605000000002
21
18.400714000000001
31
5.6000000000000005
0
LINE
5
158
100
AcDbEntity
8
0
100
AcDbLine
10
-0.147397
20
5.4007130000000014
30
5.6000000000000005
11
-0.14739700000000022
21
19.400713
31
5.6000000000000005
0
LINE
5
159
100
AcDbEntity
8
0
100
AcDbLine
10
-0.14739700000000022
20
19.400713
30
5.6000000000000005
11
13.852603000000002
21
19.400713
31
5.6000000000000005
0
LINE
5
160
100
AcDbEntity
8
0
100
AcDbLine
10
13.852603000000002
20
19.400713
30
5.6000000000000005
11
13.852603000000002
21
5.4007130000000014
31
5.6000000000000005
0
LINE
5
161
100
AcDbEntity
8
0
100
AcDbLine
10
13.852603000000002
20
5.4007130000000014
30
5.6000000000000005
11
-0.147397
21
5.4007130000000014
31
5.6000000000000005
0
LINE
5
162
100
AcDbEntity
8
0
100
AcDbLine
10
29.852606000000002
20
34.400713000000003
30
5.6000000000000005
11
29.852606000000002
21
20.400713000000003
31
5.6000000000000005
0
LINE
5
163
100
AcDbEntity
8
0
100
AcDbLine
10
29.852606000000002
20
20.400713000000003
30
5.6000000000000005
11
15.852606
21
20.400713000000003
31
5.6000000000000005
0
LINE
5
164
100
AcDbEntity
8
0
100
AcDbLine
10
15.852606
20
20.400713000000003
30
5.6000000000000005
11
15.852606
21
34.400713000000003
31
5.6000000000000005
0
LINE
5
165
100
AcDbEntity
8
0
100
AcDbLine
10
15.852606
20
34.400713000000003
30
5.6000000000000005
11
29.852606000000002
21
34.400713000000003
31
5.6000000000000005
0
LINE
5
166
100
AcDbEntity
8
0
100
AcDbLine
10
-0.14739499999999905
20
35.400713000000003
30
5.6000000000000005
11
13.852605000000002
21
35.400713000000003
31
5.6000000000000005
0
LINE
5
167
100
AcDbEntity
8
0
100
AcDbLine
10
13.852605000000002
20
35.400713000000003
30
5.6000000000000005
11
13.852605000000002
21
21.400713000000003
31
5.6000000000000005
0
LINE
5
168
100
AcDbEntity
8
0
100
AcDbLine
10
13.852605000000002
20
21.400713000000003
30
5.6000000000000005
11
-0.14739499999999905
21
21.400713000000003
31
5.6000000000000005
0
LINE
5
169
100
AcDbEntity
8
0
100
AcDbLine
10
-0.14739499999999905
20
21.400713000000003
30
5.6000000000000005
11
-0.14739499999999905
21
35.400713000000003
31
5.6000000000000005
0
LINE
5
170
100
AcDbEntity
8
0
100
AcDbLine
10
-18.298298024699999
20
4.8814834895489989
30
5.6000000000000005
11
-19.761696510450001
21
18.804790024704001
31
5.6000000000000005
0
LINE
5
171
100
AcDbEntity
8
0
100
AcDbLine
10
-19.761696510450001
20
18.804790024704001
30
5.6000000000000005
11
-5.8383899752959989
21
20.268188510451001
31
5.6000000000000005
0
LINE
5
172
100
AcDbEntity
8
0
100
AcDbLine
10
-5.8383899752959989
20
20.268188510451001
30
5.6000000000000005
11
-4.3749914895490001
21
6.3448819752959995
31
5.6000000000000005
0
LINE
5
173
100
AcDbEntity
8
0
100
AcDbLine
10
-4.3749914895490001
20
6.3448819752959995
30
5.6000000000000005
11
-18.298298024699999
21
4.8814834895489989
31
5.6000000000000005
0
LINE
5
174
100
AcDbEntity
8
0
100
AcDbLine
10
-37.230661639440001
20
13.994963128884002
30
5.6000000000000005
11
-23.403024871109999
21
16.185045639447999
31
5.6000000000000005
0
LINE
5
175
100
AcDbEntity
8
0
100
AcDbLine
10
-23.403024871109999
20
16.185045639447999
30
5.6000000000000005
11
-21.212942360549999
21
2.3574088711160002
31
5.6000000000000005
0
LINE
5
176
100
AcDbEntity
8
0
100
AcDbLine
10
-21.212942360549999
20
2.3574088711160002
30
5.6000000000000005
11
-35.040579128879997
21
0.16732636055200034
31
5.6000000000000005
0
LINE
5
177
100
AcDbEntity
8
0
100
AcDbLine
10
-35.040579128879997
20
0.16732636055200034
30
5.6000000000000005
11
-37.230661639440001
21
13.994963128884002
31
5.6000000000000005
0
LINE
5
178
100
AcDbEntity
8
0
100
AcDbLine
10
-56.747355833900002
20
17.185946073090001
30
5.6000000000000005
11
-43.106174926910008
21
20.335260833904002
31
5.6000000000000005
0
LINE
5
179
100
AcDbEntity
8
0
100
AcDbLine
10
-43.106174926910008
20
20.335260833904002
30
5.6000000000000005
11
-39.956860166090003
21
6.6940799269100015
31
5.6000000000000005
0
LINE
5
180
100
AcDbEntity
8
0
100
AcDbLine
10
-39.956860166090003
20
6.6940799269100015
30
5.6000000000000005
11
-53.598041073090002
21
3.544765166096
31
5.6000000000000005
0
LINE
5
181
100
AcDbEntity
8
0
100
AcDbLine
10
-53.598041073090002
20
3.544765166096
30
5.6000000000000005
11
-56.747355833900002
21
17.185946073090001
31
5.6000000000000005
0
LINE
5
182
100
AcDbEntity
8
0
100
AcDbLine
10
-19.970753024699999
20
20.793834489548999
30
5.6000000000000005
11
-21.43415151045
21
34.717141024703999
31
5.6000000000000005
0
LINE
5
183
100
AcDbEntity
8
0
100
AcDbLine
10
-21.43415151045
20
34.717141024703999
30
5.6000000000000005
11
-7.5108449752960009
21
36.180539510450998
31
5.6000000000000005
0
LINE
5
184
100
AcDbEntity
8
0
100
AcDbLine
10
-7.5108449752960009
20
36.180539510450998
30
5.6000000000000005
11
-6.0474464895490021
21
22.257232975295999
31
5.6000000000000005
0
LINE
5
185
100
AcDbEntity
8
0
100
AcDbLine
10
-6.0474464895490021
20
22.257232975295999
30
5.6000000000000005
11
-19.970753024699999
21
20.793834489548999
31
5.6000000000000005
0
LINE
5
186
100
AcDbEntity
8
0
100
AcDbLine
10
-25.905972871110002
20
31.988058639448003
30
5.6000000000000005
11
-23.715890360549999
21
18.160421871116
31
5.6000000000000005
0
LINE
5
187
100
AcDbEntity
8
0
100
AcDbLine
10
-23.715890360549999
20
18.160421871116
30
5.6000000000000005
11
-37.543527128880001
21
15.970339360552002
31
5.6000000000000005
0
LINE
5
188
100
AcDbEntity
8
0
100
AcDbLine
10
-37.543527128880001
20
15.970339360552002
30
5.6000000000000005
11
-39.733609639439997
21
29.797976128884002
31
5.6000000000000005
0
LINE
5
189
100
AcDbEntity
8
0
100
AcDbLine
10
-39.733609639439997
20
29.797976128884002
30
5.6000000000000005
11
-25.905972871110002
21
31.988058639448003
31
5.6000000000000005
0
ENDSEC
0
SECTION
2
OBJECTS
0
DICTIONARY
5
C
100
AcDbDictionary
3
ACAD_GROUP
350
D
3
ACAD_MLINESTYLE
350
17
0
DICTIONARY
5
D
100
AcDbDictionary
0
DICTIONARY
5
1A
330
C
100
AcDbDictionary
0
DICTIONARY
5
17
100
AcDbDictionary
0
ENDSEC
0
EOF
